<svg width="448" height="417" viewBox="0 0 448 417" fill="none" xmlns="http://www.w3.org/2000/svg">
<g filter="url(#filter0_d_353_19878)">
<path d="M16 408.134L120 0.134033H328L432 408.134H16Z" fill="#FAFAFA"/>
</g>
<rect y="0.134033" width="448" height="168" fill="url(#paint0_linear_353_19878)"/>
<g filter="url(#filter1_d_353_19878)">
<circle cx="284" cy="200.134" r="50" fill="#1DD4FB"/>
</g>
<g filter="url(#filter2_d_353_19878)">
<path fill-rule="evenodd" clip-rule="evenodd" d="M283.91 153.772C276.097 153.772 269.764 160.161 269.764 167.974V185.898H251.84C244.027 185.898 237.638 192.231 237.638 200.044C237.638 207.856 244.027 214.19 251.84 214.19H269.764V232.114C269.764 239.926 276.097 246.316 283.91 246.316C291.722 246.316 298.056 239.926 298.056 232.114V214.19H316.275C324.087 214.19 330.42 207.856 330.42 200.044C330.42 192.231 324.087 185.898 316.275 185.898H298.056V167.974C298.056 160.161 291.722 153.772 283.91 153.772ZM303.132 199.976C303.132 193.073 308.727 187.429 315.629 187.429C322.532 187.429 328.127 193.073 328.127 199.976V200.112C328.127 207.014 322.532 212.659 315.629 212.659C308.727 212.659 303.132 207.014 303.132 200.112V199.976ZM283.792 181.497C290.695 181.497 296.29 175.951 296.29 169.048C296.29 162.146 290.695 156.501 283.792 156.501C276.89 156.501 271.294 162.146 271.294 169.048C271.294 175.951 276.89 181.497 283.792 181.497ZM240.367 199.976C240.367 193.073 245.963 187.429 252.865 187.429C259.767 187.429 265.363 193.073 265.363 199.976V200.112C265.363 207.014 259.767 212.659 252.865 212.659C245.963 212.659 240.367 207.014 240.367 200.112V199.976ZM283.792 218.591C290.695 218.591 296.29 224.137 296.29 231.039C296.29 237.942 290.695 243.587 283.792 243.587C276.89 243.587 271.294 237.942 271.294 231.039C271.294 224.137 276.89 218.591 283.792 218.591Z" fill="#1DD4FB"/>
<path d="M296.29 169.048C296.29 175.951 290.695 181.497 283.792 181.497C276.89 181.497 271.294 175.951 271.294 169.048C271.294 162.146 276.89 156.501 283.792 156.501C290.695 156.501 296.29 162.146 296.29 169.048Z" fill="black"/>
<path d="M252.865 187.429C245.963 187.429 240.367 193.073 240.367 199.976V200.112C240.367 207.014 245.963 212.659 252.865 212.659C259.767 212.659 265.363 207.014 265.363 200.112V199.976C265.363 193.073 259.767 187.429 252.865 187.429Z" fill="black"/>
<path d="M296.29 231.039C296.29 224.137 290.695 218.591 283.792 218.591C276.89 218.591 271.294 224.137 271.294 231.039C271.294 237.942 276.89 243.587 283.792 243.587C290.695 243.587 296.29 237.942 296.29 231.039Z" fill="black"/>
<path d="M315.629 187.429C308.727 187.429 303.132 193.073 303.132 199.976V200.112C303.132 207.014 308.727 212.659 315.629 212.659C322.532 212.659 328.127 207.014 328.127 200.112V199.976C328.127 193.073 322.532 187.429 315.629 187.429Z" fill="black"/>
</g>
<g filter="url(#filter3_d_353_19878)">
<circle cx="164" cy="200.323" r="50" fill="#1DD4FB"/>
</g>
<g filter="url(#filter4_d_353_19878)">
<path fill-rule="evenodd" clip-rule="evenodd" d="M163.91 153.961C156.097 153.961 149.764 160.35 149.764 168.163V186.087H131.84C124.027 186.087 117.638 192.42 117.638 200.233C117.638 208.045 124.027 214.379 131.84 214.379H149.764V232.303C149.764 240.115 156.097 246.505 163.91 246.505C171.722 246.505 178.056 240.115 178.056 232.303V214.379H196.275C204.087 214.379 210.42 208.045 210.42 200.233C210.42 192.42 204.087 186.087 196.275 186.087H178.056V168.163C178.056 160.35 171.722 153.961 163.91 153.961ZM183.132 200.165C183.132 193.262 188.727 187.617 195.629 187.617C202.532 187.617 208.127 193.262 208.127 200.165V200.301C208.127 207.203 202.532 212.848 195.629 212.848C188.727 212.848 183.132 207.203 183.132 200.301V200.165ZM163.792 181.686C170.695 181.686 176.29 176.14 176.29 169.237C176.29 162.335 170.695 156.69 163.792 156.69C156.89 156.69 151.294 162.335 151.294 169.237C151.294 176.14 156.89 181.686 163.792 181.686ZM120.367 200.165C120.367 193.262 125.963 187.617 132.865 187.617C139.767 187.617 145.363 193.262 145.363 200.165V200.301C145.363 207.203 139.767 212.848 132.865 212.848C125.963 212.848 120.367 207.203 120.367 200.301V200.165ZM163.792 218.78C170.695 218.78 176.29 224.326 176.29 231.228C176.29 238.131 170.695 243.776 163.792 243.776C156.89 243.776 151.294 238.131 151.294 231.228C151.294 224.326 156.89 218.78 163.792 218.78Z" fill="#1DD4FB"/>
<path d="M176.29 169.237C176.29 176.14 170.695 181.686 163.792 181.686C156.89 181.686 151.294 176.14 151.294 169.237C151.294 162.335 156.89 156.69 163.792 156.69C170.695 156.69 176.29 162.335 176.29 169.237Z" fill="black"/>
<path d="M132.865 187.617C125.963 187.617 120.367 193.262 120.367 200.165V200.301C120.367 207.203 125.963 212.848 132.865 212.848C139.767 212.848 145.363 207.203 145.363 200.301V200.165C145.363 193.262 139.767 187.617 132.865 187.617Z" fill="black"/>
<path d="M176.29 231.228C176.29 224.326 170.695 218.78 163.792 218.78C156.89 218.78 151.294 224.326 151.294 231.228C151.294 238.131 156.89 243.776 163.792 243.776C170.695 243.776 176.29 238.131 176.29 231.228Z" fill="black"/>
<path d="M195.629 187.617C188.727 187.617 183.132 193.262 183.132 200.165V200.301C183.132 207.203 188.727 212.848 195.629 212.848C202.532 212.848 208.127 207.203 208.127 200.301V200.165C208.127 193.262 202.532 187.617 195.629 187.617Z" fill="black"/>
</g>
<defs>
<filter id="filter0_d_353_19878" x="12" y="0.134033" width="424" height="416" filterUnits="userSpaceOnUse" color-interpolation-filters="sRGB">
<feFlood flood-opacity="0" result="BackgroundImageFix"/>
<feColorMatrix in="SourceAlpha" type="matrix" values="0 0 0 0 0 0 0 0 0 0 0 0 0 0 0 0 0 0 127 0" result="hardAlpha"/>
<feOffset dy="4"/>
<feGaussianBlur stdDeviation="2"/>
<feComposite in2="hardAlpha" operator="out"/>
<feColorMatrix type="matrix" values="0 0 0 0 0 0 0 0 0 0 0 0 0 0 0 0 0 0 0.25 0"/>
<feBlend mode="normal" in2="BackgroundImageFix" result="effect1_dropShadow_353_19878"/>
<feBlend mode="normal" in="SourceGraphic" in2="effect1_dropShadow_353_19878" result="shape"/>
</filter>
<filter id="filter1_d_353_19878" x="230" y="150.134" width="108" height="108" filterUnits="userSpaceOnUse" color-interpolation-filters="sRGB">
<feFlood flood-opacity="0" result="BackgroundImageFix"/>
<feColorMatrix in="SourceAlpha" type="matrix" values="0 0 0 0 0 0 0 0 0 0 0 0 0 0 0 0 0 0 127 0" result="hardAlpha"/>
<feOffset dy="4"/>
<feGaussianBlur stdDeviation="2"/>
<feComposite in2="hardAlpha" operator="out"/>
<feColorMatrix type="matrix" values="0 0 0 0 0 0 0 0 0 0 0 0 0 0 0 0 0 0 0.25 0"/>
<feBlend mode="normal" in2="BackgroundImageFix" result="effect1_dropShadow_353_19878"/>
<feBlend mode="normal" in="SourceGraphic" in2="effect1_dropShadow_353_19878" result="shape"/>
</filter>
<filter id="filter2_d_353_19878" x="233.638" y="153.772" width="100.782" height="100.543" filterUnits="userSpaceOnUse" color-interpolation-filters="sRGB">
<feFlood flood-opacity="0" result="BackgroundImageFix"/>
<feColorMatrix in="SourceAlpha" type="matrix" values="0 0 0 0 0 0 0 0 0 0 0 0 0 0 0 0 0 0 127 0" result="hardAlpha"/>
<feOffset dy="4"/>
<feGaussianBlur stdDeviation="2"/>
<feComposite in2="hardAlpha" operator="out"/>
<feColorMatrix type="matrix" values="0 0 0 0 0 0 0 0 0 0 0 0 0 0 0 0 0 0 0.25 0"/>
<feBlend mode="normal" in2="BackgroundImageFix" result="effect1_dropShadow_353_19878"/>
<feBlend mode="normal" in="SourceGraphic" in2="effect1_dropShadow_353_19878" result="shape"/>
</filter>
<filter id="filter3_d_353_19878" x="110" y="150.323" width="108" height="108" filterUnits="userSpaceOnUse" color-interpolation-filters="sRGB">
<feFlood flood-opacity="0" result="BackgroundImageFix"/>
<feColorMatrix in="SourceAlpha" type="matrix" values="0 0 0 0 0 0 0 0 0 0 0 0 0 0 0 0 0 0 127 0" result="hardAlpha"/>
<feOffset dy="4"/>
<feGaussianBlur stdDeviation="2"/>
<feComposite in2="hardAlpha" operator="out"/>
<feColorMatrix type="matrix" values="0 0 0 0 0 0 0 0 0 0 0 0 0 0 0 0 0 0 0.25 0"/>
<feBlend mode="normal" in2="BackgroundImageFix" result="effect1_dropShadow_353_19878"/>
<feBlend mode="normal" in="SourceGraphic" in2="effect1_dropShadow_353_19878" result="shape"/>
</filter>
<filter id="filter4_d_353_19878" x="113.638" y="153.961" width="100.782" height="100.543" filterUnits="userSpaceOnUse" color-interpolation-filters="sRGB">
<feFlood flood-opacity="0" result="BackgroundImageFix"/>
<feColorMatrix in="SourceAlpha" type="matrix" values="0 0 0 0 0 0 0 0 0 0 0 0 0 0 0 0 0 0 127 0" result="hardAlpha"/>
<feOffset dy="4"/>
<feGaussianBlur stdDeviation="2"/>
<feComposite in2="hardAlpha" operator="out"/>
<feColorMatrix type="matrix" values="0 0 0 0 0 0 0 0 0 0 0 0 0 0 0 0 0 0 0.25 0"/>
<feBlend mode="normal" in2="BackgroundImageFix" result="effect1_dropShadow_353_19878"/>
<feBlend mode="normal" in="SourceGraphic" in2="effect1_dropShadow_353_19878" result="shape"/>
</filter>
<linearGradient id="paint0_linear_353_19878" x1="224" y1="0.134033" x2="224" y2="168.134" gradientUnits="userSpaceOnUse">
<stop stop-color="white"/>
<stop offset="1" stop-color="white" stop-opacity="0.14"/>
</linearGradient>
</defs>
</svg>
