<svg width="416" height="217" viewBox="0 0 416 217" fill="none" xmlns="http://www.w3.org/2000/svg">
<g filter="url(#filter0_i_300_3448)">
<rect width="416" height="216.189" rx="10" fill="#E4EAF6"/>
</g>
<g filter="url(#filter1_i_300_3448)">
<path d="M72.1118 116.586C71.1678 116.586 70.2798 116.354 69.4478 115.89C68.6318 115.41 67.9758 114.714 67.4798 113.802C66.9838 112.89 66.7358 111.786 66.7358 110.49V110.106C66.7358 108.81 66.9838 107.706 67.4798 106.794C67.9758 105.882 68.6318 105.194 69.4478 104.73C70.2638 104.25 71.1518 104.01 72.1118 104.01C72.8318 104.01 73.4318 104.098 73.9118 104.274C74.4078 104.434 74.8078 104.642 75.1118 104.898C75.4158 105.154 75.6478 105.426 75.8078 105.714H76.2398V99.4505H79.2638V116.25H76.2878V114.81H75.8558C75.5838 115.258 75.1598 115.666 74.5838 116.034C74.0238 116.402 73.1998 116.586 72.1118 116.586ZM73.0238 113.946C73.9518 113.946 74.7278 113.65 75.3518 113.058C75.9758 112.45 76.2878 111.57 76.2878 110.418V110.178C76.2878 109.026 75.9758 108.154 75.3518 107.562C74.7438 106.954 73.9678 106.65 73.0238 106.65C72.0958 106.65 71.3198 106.954 70.6958 107.562C70.0718 108.154 69.7598 109.026 69.7598 110.178V110.418C69.7598 111.57 70.0718 112.45 70.6958 113.058C71.3198 113.65 72.0958 113.946 73.0238 113.946ZM84.0564 116.25V104.346H87.0324V105.69H87.4644C87.6404 105.21 87.9284 104.858 88.3284 104.634C88.7444 104.41 89.2244 104.298 89.7684 104.298H91.2084V106.986H89.7204C88.9524 106.986 88.3204 107.194 87.8244 107.61C87.3284 108.01 87.0804 108.634 87.0804 109.482V116.25H84.0564ZM98.4268 116.586C97.5788 116.586 96.8188 116.442 96.1468 116.154C95.4748 115.85 94.9388 115.418 94.5388 114.858C94.1548 114.282 93.9628 113.586 93.9628 112.77C93.9628 111.954 94.1548 111.274 94.5388 110.73C94.9388 110.17 95.4828 109.754 96.1708 109.482C96.8748 109.194 97.6748 109.05 98.5708 109.05H101.835V108.378C101.835 107.818 101.659 107.362 101.307 107.01C100.955 106.642 100.395 106.458 99.6268 106.458C98.8748 106.458 98.3148 106.634 97.9468 106.986C97.5788 107.322 97.3388 107.762 97.2268 108.306L94.4428 107.37C94.6348 106.762 94.9388 106.21 95.3548 105.714C95.7868 105.202 96.3548 104.794 97.0588 104.49C97.7788 104.17 98.6508 104.01 99.6748 104.01C101.243 104.01 102.483 104.402 103.395 105.186C104.307 105.97 104.763 107.106 104.763 108.594V113.034C104.763 113.514 104.987 113.754 105.435 113.754H106.395V116.25H104.379C103.787 116.25 103.299 116.106 102.915 115.818C102.531 115.53 102.339 115.146 102.339 114.666V114.642H101.883C101.819 114.834 101.675 115.09 101.451 115.41C101.227 115.714 100.875 115.986 100.395 116.226C99.9148 116.466 99.2588 116.586 98.4268 116.586ZM98.9548 114.138C99.8028 114.138 100.491 113.906 101.019 113.442C101.563 112.962 101.835 112.33 101.835 111.546V111.306H98.7868C98.2268 111.306 97.7868 111.426 97.4668 111.666C97.1468 111.906 96.9868 112.242 96.9868 112.674C96.9868 113.106 97.1548 113.458 97.4908 113.73C97.8268 114.002 98.3148 114.138 98.9548 114.138ZM109.235 110.346V109.962C109.235 108.714 109.483 107.65 109.979 106.77C110.475 105.874 111.131 105.194 111.947 104.73C112.779 104.25 113.683 104.01 114.659 104.01C115.747 104.01 116.571 104.202 117.131 104.586C117.691 104.97 118.099 105.37 118.355 105.786H118.787V104.346H121.763V118.362C121.763 119.178 121.523 119.826 121.043 120.306C120.563 120.802 119.923 121.05 119.123 121.05H111.155V118.41H118.067C118.515 118.41 118.739 118.17 118.739 117.69V114.594H118.307C118.147 114.85 117.923 115.114 117.635 115.386C117.347 115.642 116.963 115.858 116.483 116.034C116.003 116.21 115.395 116.298 114.659 116.298C113.683 116.298 112.779 116.066 111.947 115.602C111.131 115.122 110.475 114.442 109.979 113.562C109.483 112.666 109.235 111.594 109.235 110.346ZM115.523 113.658C116.451 113.658 117.227 113.362 117.851 112.77C118.475 112.178 118.787 111.346 118.787 110.274V110.034C118.787 108.946 118.475 108.114 117.851 107.538C117.243 106.946 116.467 106.65 115.523 106.65C114.595 106.65 113.819 106.946 113.195 107.538C112.571 108.114 112.259 108.946 112.259 110.034V110.274C112.259 111.346 112.571 112.178 113.195 112.77C113.819 113.362 114.595 113.658 115.523 113.658ZM138.05 116.25C137.058 116.25 136.186 116.074 135.434 115.722C134.698 115.354 134.122 114.834 133.706 114.162C133.29 113.474 133.082 112.658 133.082 111.714C133.082 111.026 133.202 110.426 133.442 109.914C133.698 109.402 134.042 108.978 134.474 108.642C134.906 108.306 135.386 108.058 135.914 107.898V107.562C135.114 107.322 134.458 106.906 133.946 106.314C133.434 105.722 133.178 104.938 133.178 103.962C133.178 102.986 133.394 102.162 133.826 101.49C134.258 100.818 134.842 100.314 135.578 99.9785C136.33 99.6265 137.186 99.4505 138.146 99.4505H140.762V101.946H138.698C137.978 101.946 137.378 102.138 136.898 102.522C136.434 102.906 136.202 103.474 136.202 104.226C136.202 104.754 136.314 105.186 136.538 105.522C136.778 105.858 137.082 106.106 137.45 106.266C137.834 106.426 138.25 106.506 138.698 106.506H141.026V104.346H144.05V106.506H146.258V109.002H144.05V116.25H138.05ZM138.602 113.754H141.026V109.002H138.602C137.898 109.002 137.306 109.202 136.826 109.602C136.346 110.002 136.106 110.594 136.106 111.378C136.106 112.178 136.354 112.778 136.85 113.178C137.362 113.562 137.946 113.754 138.602 113.754ZM162.043 116.586C161.099 116.586 160.211 116.354 159.379 115.89C158.563 115.41 157.907 114.714 157.411 113.802C156.915 112.89 156.667 111.786 156.667 110.49V110.106C156.667 108.81 156.915 107.706 157.411 106.794C157.907 105.882 158.563 105.194 159.379 104.73C160.195 104.25 161.083 104.01 162.043 104.01C162.763 104.01 163.363 104.098 163.843 104.274C164.339 104.434 164.739 104.642 165.043 104.898C165.347 105.154 165.579 105.426 165.739 105.714H166.171V99.4505H169.195V116.25H166.219V114.81H165.787C165.515 115.258 165.091 115.666 164.515 116.034C163.955 116.402 163.131 116.586 162.043 116.586ZM162.955 113.946C163.883 113.946 164.659 113.65 165.283 113.058C165.907 112.45 166.219 111.57 166.219 110.418V110.178C166.219 109.026 165.907 108.154 165.283 107.562C164.675 106.954 163.899 106.65 162.955 106.65C162.027 106.65 161.251 106.954 160.627 107.562C160.003 108.154 159.691 109.026 159.691 110.178V110.418C159.691 111.57 160.003 112.45 160.627 113.058C161.251 113.65 162.027 113.946 162.955 113.946ZM173.988 116.25V104.346H176.964V105.69H177.396C177.572 105.21 177.86 104.858 178.26 104.634C178.676 104.41 179.156 104.298 179.7 104.298H181.14V106.986H179.652C178.884 106.986 178.252 107.194 177.756 107.61C177.26 108.01 177.012 108.634 177.012 109.482V116.25H173.988ZM190.186 116.586C189.002 116.586 187.938 116.346 186.994 115.866C186.05 115.386 185.306 114.69 184.762 113.778C184.218 112.866 183.946 111.77 183.946 110.49V110.106C183.946 108.826 184.218 107.73 184.762 106.818C185.306 105.906 186.05 105.21 186.994 104.73C187.938 104.25 189.002 104.01 190.186 104.01C191.37 104.01 192.434 104.25 193.378 104.73C194.322 105.21 195.066 105.906 195.61 106.818C196.154 107.73 196.426 108.826 196.426 110.106V110.49C196.426 111.77 196.154 112.866 195.61 113.778C195.066 114.69 194.322 115.386 193.378 115.866C192.434 116.346 191.37 116.586 190.186 116.586ZM190.186 113.898C191.114 113.898 191.882 113.602 192.49 113.01C193.098 112.402 193.402 111.538 193.402 110.418V110.178C193.402 109.058 193.098 108.202 192.49 107.61C191.898 107.002 191.13 106.698 190.186 106.698C189.258 106.698 188.49 107.002 187.882 107.61C187.274 108.202 186.97 109.058 186.97 110.178V110.418C186.97 111.538 187.274 112.402 187.882 113.01C188.49 113.602 189.258 113.898 190.186 113.898ZM200.657 121.05V104.346H203.633V105.786H204.065C204.337 105.322 204.761 104.914 205.337 104.562C205.913 104.194 206.737 104.01 207.809 104.01C208.769 104.01 209.657 104.25 210.473 104.73C211.289 105.194 211.945 105.882 212.441 106.794C212.937 107.706 213.185 108.81 213.185 110.106V110.49C213.185 111.786 212.937 112.89 212.441 113.802C211.945 114.714 211.289 115.41 210.473 115.89C209.657 116.354 208.769 116.586 207.809 116.586C207.089 116.586 206.481 116.498 205.985 116.322C205.505 116.162 205.113 115.954 204.809 115.698C204.521 115.426 204.289 115.154 204.113 114.882H203.681V121.05H200.657ZM206.897 113.946C207.841 113.946 208.617 113.65 209.225 113.058C209.849 112.45 210.161 111.57 210.161 110.418V110.178C210.161 109.026 209.849 108.154 209.225 107.562C208.601 106.954 207.825 106.65 206.897 106.65C205.969 106.65 205.193 106.954 204.569 107.562C203.945 108.154 203.633 109.026 203.633 110.178V110.418C203.633 111.57 203.945 112.45 204.569 113.058C205.193 113.65 205.969 113.946 206.897 113.946ZM230.528 116.586C229.376 116.586 228.328 116.346 227.384 115.866C226.456 115.386 225.72 114.69 225.176 113.778C224.632 112.866 224.36 111.762 224.36 110.466V110.13C224.36 108.834 224.632 107.73 225.176 106.818C225.72 105.906 226.456 105.21 227.384 104.73C228.328 104.25 229.376 104.01 230.528 104.01C231.664 104.01 232.64 104.21 233.456 104.61C234.272 105.01 234.928 105.562 235.424 106.266C235.936 106.954 236.272 107.738 236.432 108.618L233.504 109.242C233.44 108.762 233.296 108.33 233.072 107.946C232.848 107.562 232.528 107.258 232.112 107.034C231.712 106.81 231.208 106.698 230.6 106.698C229.992 106.698 229.44 106.834 228.944 107.106C228.464 107.362 228.08 107.754 227.792 108.282C227.52 108.794 227.384 109.426 227.384 110.178V110.418C227.384 111.17 227.52 111.81 227.792 112.338C228.08 112.85 228.464 113.242 228.944 113.514C229.44 113.77 229.992 113.898 230.6 113.898C231.512 113.898 232.2 113.666 232.664 113.202C233.144 112.722 233.448 112.098 233.576 111.33L236.504 112.026C236.296 112.874 235.936 113.65 235.424 114.354C234.928 115.042 234.272 115.586 233.456 115.986C232.64 116.386 231.664 116.586 230.528 116.586ZM246.102 116.586C244.918 116.586 243.854 116.346 242.91 115.866C241.966 115.386 241.222 114.69 240.678 113.778C240.134 112.866 239.862 111.77 239.862 110.49V110.106C239.862 108.826 240.134 107.73 240.678 106.818C241.222 105.906 241.966 105.21 242.91 104.73C243.854 104.25 244.918 104.01 246.102 104.01C247.286 104.01 248.35 104.25 249.294 104.73C250.238 105.21 250.982 105.906 251.526 106.818C252.07 107.73 252.342 108.826 252.342 110.106V110.49C252.342 111.77 252.07 112.866 251.526 113.778C250.982 114.69 250.238 115.386 249.294 115.866C248.35 116.346 247.286 116.586 246.102 116.586ZM246.102 113.898C247.03 113.898 247.798 113.602 248.406 113.01C249.014 112.402 249.318 111.538 249.318 110.418V110.178C249.318 109.058 249.014 108.202 248.406 107.61C247.814 107.002 247.046 106.698 246.102 106.698C245.174 106.698 244.406 107.002 243.798 107.61C243.19 108.202 242.886 109.058 242.886 110.178V110.418C242.886 111.538 243.19 112.402 243.798 113.01C244.406 113.602 245.174 113.898 246.102 113.898ZM261.373 116.586C260.429 116.586 259.541 116.354 258.709 115.89C257.893 115.41 257.237 114.714 256.741 113.802C256.245 112.89 255.997 111.786 255.997 110.49V110.106C255.997 108.81 256.245 107.706 256.741 106.794C257.237 105.882 257.893 105.194 258.709 104.73C259.525 104.25 260.413 104.01 261.373 104.01C262.093 104.01 262.693 104.098 263.173 104.274C263.669 104.434 264.069 104.642 264.373 104.898C264.677 105.154 264.909 105.426 265.069 105.714H265.501V99.4505H268.525V116.25H265.549V114.81H265.117C264.845 115.258 264.421 115.666 263.845 116.034C263.285 116.402 262.461 116.586 261.373 116.586ZM262.285 113.946C263.213 113.946 263.989 113.65 264.613 113.058C265.237 112.45 265.549 111.57 265.549 110.418V110.178C265.549 109.026 265.237 108.154 264.613 107.562C264.005 106.954 263.229 106.65 262.285 106.65C261.357 106.65 260.581 106.954 259.957 107.562C259.333 108.154 259.021 109.026 259.021 110.178V110.418C259.021 111.57 259.333 112.45 259.957 113.058C260.581 113.65 261.357 113.946 262.285 113.946ZM278.742 116.586C277.558 116.586 276.51 116.338 275.598 115.842C274.702 115.33 273.998 114.618 273.486 113.706C272.99 112.778 272.742 111.69 272.742 110.442V110.154C272.742 108.906 272.99 107.826 273.486 106.914C273.982 105.986 274.678 105.274 275.574 104.778C276.47 104.266 277.51 104.01 278.694 104.01C279.862 104.01 280.878 104.274 281.742 104.802C282.606 105.314 283.278 106.034 283.758 106.962C284.238 107.874 284.478 108.938 284.478 110.154V111.186H275.814C275.846 112.002 276.15 112.666 276.726 113.178C277.302 113.69 278.006 113.946 278.838 113.946C279.686 113.946 280.31 113.762 280.71 113.394C281.11 113.026 281.414 112.618 281.622 112.17L284.094 113.466C283.87 113.882 283.542 114.338 283.11 114.834C282.694 115.314 282.134 115.73 281.43 116.082C280.726 116.418 279.83 116.586 278.742 116.586ZM275.838 108.93H281.406C281.342 108.242 281.062 107.69 280.566 107.274C280.086 106.858 279.454 106.65 278.67 106.65C277.854 106.65 277.206 106.858 276.726 107.274C276.246 107.69 275.95 108.242 275.838 108.93ZM296.143 116.25V99.4505H299.167V105.81H299.599C299.727 105.554 299.927 105.298 300.199 105.042C300.471 104.786 300.831 104.578 301.279 104.418C301.743 104.242 302.327 104.154 303.031 104.154C303.959 104.154 304.767 104.37 305.455 104.802C306.159 105.218 306.703 105.802 307.087 106.554C307.471 107.29 307.663 108.154 307.663 109.146V116.25H304.639V109.386C304.639 108.49 304.415 107.818 303.967 107.37C303.535 106.922 302.911 106.698 302.095 106.698C301.167 106.698 300.447 107.01 299.935 107.634C299.423 108.242 299.167 109.098 299.167 110.202V116.25H296.143ZM317.796 116.586C316.612 116.586 315.564 116.338 314.652 115.842C313.756 115.33 313.052 114.618 312.54 113.706C312.044 112.778 311.796 111.69 311.796 110.442V110.154C311.796 108.906 312.044 107.826 312.54 106.914C313.036 105.986 313.732 105.274 314.628 104.778C315.524 104.266 316.564 104.01 317.748 104.01C318.916 104.01 319.932 104.274 320.796 104.802C321.66 105.314 322.332 106.034 322.812 106.962C323.292 107.874 323.532 108.938 323.532 110.154V111.186H314.868C314.9 112.002 315.204 112.666 315.78 113.178C316.356 113.69 317.06 113.946 317.892 113.946C318.74 113.946 319.364 113.762 319.764 113.394C320.164 113.026 320.468 112.618 320.676 112.17L323.148 113.466C322.924 113.882 322.596 114.338 322.164 114.834C321.748 115.314 321.188 115.73 320.484 116.082C319.78 116.418 318.884 116.586 317.796 116.586ZM314.892 108.93H320.46C320.396 108.242 320.116 107.69 319.62 107.274C319.14 106.858 318.508 106.65 317.724 106.65C316.908 106.65 316.26 106.858 315.78 107.274C315.3 107.69 315.004 108.242 314.892 108.93ZM327.664 116.25V104.346H330.64V105.69H331.072C331.248 105.21 331.536 104.858 331.936 104.634C332.352 104.41 332.832 104.298 333.376 104.298H334.816V106.986H333.328C332.56 106.986 331.928 107.194 331.432 107.61C330.936 108.01 330.688 108.634 330.688 109.482V116.25H327.664ZM343.622 116.586C342.438 116.586 341.39 116.338 340.478 115.842C339.582 115.33 338.878 114.618 338.366 113.706C337.87 112.778 337.622 111.69 337.622 110.442V110.154C337.622 108.906 337.87 107.826 338.366 106.914C338.862 105.986 339.558 105.274 340.454 104.778C341.35 104.266 342.39 104.01 343.574 104.01C344.742 104.01 345.758 104.274 346.622 104.802C347.486 105.314 348.158 106.034 348.638 106.962C349.118 107.874 349.358 108.938 349.358 110.154V111.186H340.694C340.726 112.002 341.03 112.666 341.606 113.178C342.182 113.69 342.886 113.946 343.718 113.946C344.566 113.946 345.19 113.762 345.59 113.394C345.99 113.026 346.294 112.618 346.502 112.17L348.974 113.466C348.75 113.882 348.422 114.338 347.99 114.834C347.574 115.314 347.014 115.73 346.31 116.082C345.606 116.418 344.71 116.586 343.622 116.586ZM340.718 108.93H346.286C346.222 108.242 345.942 107.69 345.446 107.274C344.966 106.858 344.334 106.65 343.55 106.65C342.734 106.65 342.086 106.858 341.606 107.274C341.126 107.69 340.83 108.242 340.718 108.93Z" fill="#405CB0"/>
</g>
<defs>
<filter id="filter0_i_300_3448" x="0" y="0" width="416" height="220.189" filterUnits="userSpaceOnUse" color-interpolation-filters="sRGB">
<feFlood flood-opacity="0" result="BackgroundImageFix"/>
<feBlend mode="normal" in="SourceGraphic" in2="BackgroundImageFix" result="shape"/>
<feColorMatrix in="SourceAlpha" type="matrix" values="0 0 0 0 0 0 0 0 0 0 0 0 0 0 0 0 0 0 127 0" result="hardAlpha"/>
<feOffset dy="4"/>
<feGaussianBlur stdDeviation="2"/>
<feComposite in2="hardAlpha" operator="arithmetic" k2="-1" k3="1"/>
<feColorMatrix type="matrix" values="0 0 0 0 0 0 0 0 0 0 0 0 0 0 0 0 0 0 0.25 0"/>
<feBlend mode="normal" in2="shape" result="effect1_innerShadow_300_3448"/>
</filter>
<filter id="filter1_i_300_3448" x="66.7358" y="99.4504" width="282.622" height="21.6001" filterUnits="userSpaceOnUse" color-interpolation-filters="sRGB">
<feFlood flood-opacity="0" result="BackgroundImageFix"/>
<feBlend mode="normal" in="SourceGraphic" in2="BackgroundImageFix" result="shape"/>
<feColorMatrix in="SourceAlpha" type="matrix" values="0 0 0 0 0 0 0 0 0 0 0 0 0 0 0 0 0 0 127 0" result="hardAlpha"/>
<feOffset dy="1"/>
<feComposite in2="hardAlpha" operator="arithmetic" k2="-1" k3="1"/>
<feColorMatrix type="matrix" values="0 0 0 0 0 0 0 0 0 0 0 0 0 0 0 0 0 0 0.25 0"/>
<feBlend mode="normal" in2="shape" result="effect1_innerShadow_300_3448"/>
</filter>
</defs>
</svg>
