<svg width="631" height="835" viewBox="0 0 700 835" fill="none" xmlns="http://www.w3.org/2000/svg">
<g filter="url(#filter0_i_257_7391)">
<path d="M2 27H0H2ZM297.333 101C297.333 106.891 302.109 111.667 308 111.667C313.891 111.667 318.667 106.891 318.667 101C318.667 95.109 313.891 90.3333 308 90.3333C302.109 90.3333 297.333 95.109 297.333 101ZM297.333 141C297.333 146.891 302.109 151.667 308 151.667C313.891 151.667 318.667 146.891 318.667 141C318.667 135.109 313.891 130.333 308 130.333C302.109 130.333 297.333 135.109 297.333 141ZM4 808V166H0V808H4ZM27 143H590V139H27V143ZM613 166V808H617V166H613ZM590 831H27V835H590V831ZM613 808C613 820.703 602.703 831 590 831V835C604.912 835 617 822.912 617 808H613ZM590 143C602.703 143 613 153.298 613 166H617C617 151.088 604.912 139 590 139V143ZM4 166C4 153.297 14.2975 143 27 143V139C12.0883 139 0 151.088 0 166H4ZM0 808C0 822.912 12.0883 835 27 835V831C14.2975 831 4 820.703 4 808H0ZM4 76V27H0V76H4ZM27 4H590V0H27V4ZM613 27V76H617V27H613ZM613 76C613 88.7026 602.703 99 590 99V103C604.912 103 617 90.9117 617 76H613ZM590 4C602.703 4 613 14.2974 613 27H617C617 12.0883 604.912 0 590 0V4ZM4 27C4 14.2975 14.2975 4 27 4V0C12.0883 0 0 12.0883 0 27H4ZM0 76C0 90.9117 12.0883 103 27 103V99C14.2975 99 4 88.7025 4 76H0ZM306 101V141H310V101H306ZM590 99H27V103H590V99Z" fill="#98AEDD"/>
</g>
<defs>
<filter id="filter0_i_257_7391" x="0" y="0" width="631" height="839" filterUnits="userSpaceOnUse" color-interpolation-filters="sRGB">
<feFlood flood-opacity="0" result="BackgroundImageFix"/>
<feBlend mode="normal" in="SourceGraphic" in2="BackgroundImageFix" result="shape"/>
<feColorMatrix in="SourceAlpha" type="matrix" values="0 0 0 0 0 0 0 0 0 0 0 0 0 0 0 0 0 0 127 0" result="hardAlpha"/>
<feOffset dy="4"/>
<feGaussianBlur stdDeviation="2"/>
<feComposite in2="hardAlpha" operator="arithmetic" k2="-1" k3="1"/>
<feColorMatrix type="matrix" values="0 0 0 0 0 0 0 0 0 0 0 0 0 0 0 0 0 0 0.25 0"/>
<feBlend mode="normal" in2="shape" result="effect1_innerShadow_257_7391"/>
</filter>
</defs>
</svg>
