<svg width="27" height="100" viewBox="0 0 27 100" fill="none" xmlns="http://www.w3.org/2000/svg">
<g filter="url(#filter0_i_81_12357)">
<path d="M13.3784 26.7562C20.7667 26.7562 26.7562 20.7667 26.7562 13.3784C26.7562 5.99007 20.7667 0.000650659 13.3784 0.000650659C5.99008 0.000650659 0.000653529 5.99007 0.000653529 13.3784C0.000653529 20.7667 5.99008 26.7562 13.3784 26.7562ZM13.3784 99.9993C20.7667 99.9993 26.7562 94.0099 26.7562 86.6216C26.7562 79.2333 20.7667 73.2438 13.3784 73.2438C5.99008 73.2438 0.000653529 79.2333 0.000653529 86.6216C0.000653529 94.0099 5.99008 99.9993 13.3784 99.9993ZM10.8701 13.3784L10.8701 86.6216H15.8867L15.8867 13.3784H10.8701Z" fill="#EAB4FE"/>
</g>
<defs>
<filter id="filter0_i_81_12357" x="0" y="0" width="26.7568" height="104.013" filterUnits="userSpaceOnUse" color-interpolation-filters="sRGB">
<feFlood flood-opacity="0" result="BackgroundImageFix"/>
<feBlend mode="normal" in="SourceGraphic" in2="BackgroundImageFix" result="shape"/>
<feColorMatrix in="SourceAlpha" type="matrix" values="0 0 0 0 0 0 0 0 0 0 0 0 0 0 0 0 0 0 127 0" result="hardAlpha"/>
<feOffset dy="4"/>
<feGaussianBlur stdDeviation="2"/>
<feComposite in2="hardAlpha" operator="arithmetic" k2="-1" k3="1"/>
<feColorMatrix type="matrix" values="0 0 0 0 0 0 0 0 0 0 0 0 0 0 0 0 0 0 0.25 0"/>
<feBlend mode="normal" in2="shape" result="effect1_innerShadow_81_12357"/>
</filter>
</defs>
</svg>
