<svg width="153" height="66" viewBox="0 0 153 66" fill="none" xmlns="http://www.w3.org/2000/svg">
<g filter="url(#filter0_d_304_10450)">
<path fill-rule="evenodd" clip-rule="evenodd" d="M4.57129 53.0425H148.57V57.0321H4.57129V53.0425Z" fill="#6580E1" fill-opacity="0.6"/>
</g>
<path fill-rule="evenodd" clip-rule="evenodd" d="M148.571 53.0419C148.571 23.8941 116.336 0.265137 76.5716 0.265137C36.8073 0.265137 4.57202 23.8941 4.57202 53.0419V57.0315C4.57202 27.8837 36.8073 4.25477 76.5716 4.25477C116.336 4.25477 148.571 27.8837 148.571 57.0315V53.0419Z" fill="#6580E1" fill-opacity="0.6"/>
<path fill-rule="evenodd" clip-rule="evenodd" d="M148.571 53.0419C148.571 23.8941 116.336 0.265137 76.5716 0.265137C36.8073 0.265137 4.57202 23.8941 4.57202 53.0419H148.571Z" fill="#405CB0"/>
<g filter="url(#filter1_d_304_10450)">
<path d="M35.707 26.0647V20.2046H37.3449V21.0842H37.6043C37.7557 20.8465 38.0259 20.6246 38.4151 20.4186C38.8043 20.2125 39.3827 20.1095 40.1502 20.1095C40.7556 20.1095 41.2908 20.2086 41.7556 20.4067C42.2313 20.6048 42.6043 20.8861 42.8746 21.2506C43.1448 21.6072 43.28 22.0391 43.28 22.5463V26.0647H41.6097V22.6414C41.6097 22.1342 41.4367 21.7618 41.0908 21.524C40.7449 21.2784 40.2691 21.1555 39.6638 21.1555C38.9719 21.1555 38.4151 21.322 37.9935 21.6548C37.5827 21.9876 37.3773 22.471 37.3773 23.105V26.0647H35.707ZM50.3216 26.2311C49.5108 26.2311 48.8026 26.1083 48.1973 25.8627C47.5918 25.6091 47.1162 25.2564 46.7703 24.8047C46.4351 24.3451 46.2675 23.8142 46.2675 23.2119V23.0693C46.2675 22.4591 46.4351 21.9282 46.7703 21.4765C47.1053 21.0169 47.5702 20.6642 48.1648 20.4186C48.7702 20.165 49.4675 20.0382 50.2567 20.0382C51.0243 20.0382 51.6945 20.165 52.2675 20.4186C52.8513 20.6642 53.3053 21.009 53.6297 21.4527C53.954 21.8965 54.1161 22.4155 54.1161 23.0099V23.4734H47.9702C47.9918 23.9885 48.2243 24.4006 48.6675 24.7097C49.1216 25.0108 49.6837 25.1613 50.354 25.1613C50.981 25.1613 51.4513 25.0583 51.7648 24.8523C52.0891 24.6463 52.3378 24.4085 52.5108 24.1391L53.8891 24.6621C53.7377 24.884 53.5162 25.1177 53.2243 25.3634C52.9431 25.6091 52.5702 25.8151 52.1054 25.9815C51.6405 26.1479 51.0459 26.2311 50.3216 26.2311ZM47.9865 22.5344H52.4135C52.3702 22.0906 52.154 21.7459 51.7648 21.5003C51.3756 21.2467 50.8675 21.1199 50.2405 21.1199C49.6135 21.1199 49.0999 21.2467 48.7 21.5003C48.3108 21.7459 48.0729 22.0906 47.9865 22.5344ZM55.896 26.0647L58.9446 23.105L55.9608 20.2046H57.923L60.0149 22.3086H60.2743L62.3662 20.2046H64.3446L61.3446 23.105L64.3932 26.0647H62.3986L60.2743 23.9132H60.0149L57.8905 26.0647H55.896ZM70.1625 26.0647C69.676 26.0647 69.2868 25.9578 68.9949 25.7438C68.7138 25.5298 68.5733 25.2446 68.5733 24.888V21.2388H66.3679V20.2046H68.5733V18.2671H70.2435V20.2046H72.6273V21.2388H70.2435V24.674C70.2435 24.9117 70.3949 25.0306 70.6976 25.0306H72.3678V26.0647H70.1625ZM83.9444 26.2311C82.9282 26.2311 82.0849 26.0647 81.4147 25.7319C80.7444 25.3991 80.3336 24.8959 80.1823 24.2223L81.739 23.9489C81.8255 24.2738 81.9714 24.5314 82.1768 24.7215C82.3823 24.9117 82.6363 25.0464 82.939 25.1257C83.2525 25.2049 83.5876 25.2446 83.9444 25.2446C84.4742 25.2446 84.8796 25.1693 85.1606 25.0187C85.4525 24.8681 85.5984 24.674 85.5984 24.4363C85.5984 24.1985 85.4633 24.0242 85.193 23.9132C84.9227 23.8023 84.5228 23.7112 83.993 23.6399L83.4417 23.5685C82.9012 23.4972 82.4093 23.3942 81.966 23.2595C81.5228 23.1248 81.1714 22.9385 80.912 22.7008C80.6525 22.4631 80.5228 22.158 80.5228 21.7855C80.5228 21.2308 80.8039 20.8029 81.366 20.5018C81.9282 20.1927 82.6742 20.0382 83.6039 20.0382C84.5011 20.0382 85.2363 20.1888 85.8093 20.4899C86.393 20.7831 86.7714 21.1833 86.9444 21.6904L85.3876 22.0114C85.2903 21.6548 85.0849 21.4052 84.7714 21.2625C84.4579 21.1119 84.0687 21.0367 83.6039 21.0367C83.1498 21.0367 82.7931 21.1001 82.5336 21.2269C82.2741 21.3457 82.1444 21.5161 82.1444 21.738C82.1444 21.9757 82.2688 22.1501 82.5174 22.261C82.7768 22.3719 83.1228 22.4551 83.5552 22.5106L84.1228 22.5819C84.6957 22.6533 85.2201 22.7523 85.6957 22.8791C86.1714 23.0059 86.5444 23.1882 86.8147 23.4259C87.0957 23.6636 87.2363 23.9806 87.2363 24.3768C87.2363 24.9632 86.939 25.4189 86.3444 25.7438C85.7498 26.0687 84.9498 26.2311 83.9444 26.2311ZM92.9873 26.0647C92.5008 26.0647 92.1116 25.9578 91.8197 25.7438C91.5387 25.5298 91.3981 25.2446 91.3981 24.888V21.2388H89.1927V20.2046H91.3981V18.2671H93.0684V20.2046H95.4521V21.2388H93.0684V24.674C93.0684 24.9117 93.2198 25.0306 93.5224 25.0306H95.1927V26.0647H92.9873ZM101.767 26.2311C100.956 26.2311 100.248 26.1083 99.6428 25.8627C99.0376 25.6091 98.5615 25.2564 98.2158 24.8047C97.8805 24.3451 97.7132 23.8142 97.7132 23.2119V23.0693C97.7132 22.4591 97.8805 21.9282 98.2158 21.4765C98.5512 21.0169 99.0156 20.6642 99.6104 20.4186C100.216 20.165 100.913 20.0382 101.702 20.0382C102.47 20.0382 103.14 20.165 103.713 20.4186C104.297 20.6642 104.751 21.009 105.075 21.4527C105.4 21.8965 105.562 22.4155 105.562 23.0099V23.4734H99.4158C99.4372 23.9885 99.6701 24.4006 100.113 24.7097C100.567 25.0108 101.13 25.1613 101.8 25.1613C102.427 25.1613 102.897 25.0583 103.21 24.8523C103.535 24.6463 103.783 24.4085 103.956 24.1391L105.335 24.6621C105.184 24.884 104.962 25.1177 104.67 25.3634C104.389 25.6091 104.016 25.8151 103.551 25.9815C103.086 26.1479 102.492 26.2311 101.767 26.2311ZM99.432 22.5344H103.859C103.816 22.0906 103.6 21.7459 103.21 21.5003C102.821 21.2467 102.313 21.1199 101.686 21.1199C101.059 21.1199 100.546 21.2467 100.146 21.5003C99.7563 21.7459 99.5183 22.0906 99.432 22.5344ZM108.545 28.4421V20.2046H110.183V21.0486H110.443C110.648 20.7871 110.956 20.5533 111.367 20.3473C111.789 20.1412 112.389 20.0382 113.167 20.0382C113.837 20.0382 114.448 20.1571 114.999 20.3948C115.561 20.6325 116.01 20.9772 116.345 21.4289C116.691 21.8727 116.864 22.4116 116.864 23.0455V23.2238C116.864 23.8578 116.696 24.4006 116.362 24.8523C116.026 25.296 115.577 25.6368 115.016 25.8745C114.453 26.1123 113.837 26.2311 113.167 26.2311C112.648 26.2311 112.21 26.1836 111.854 26.0885C111.497 25.9934 111.21 25.8745 110.994 25.7319C110.777 25.5813 110.605 25.4268 110.475 25.2683H110.216V28.4421H108.545ZM112.681 25.1613C113.416 25.1613 114.016 24.991 114.481 24.6502C114.945 24.3095 115.178 23.8221 115.178 23.1882V23.0812C115.178 22.4551 114.94 21.9718 114.464 21.631C113.999 21.2902 113.404 21.1199 112.681 21.1199C111.967 21.1199 111.372 21.2902 110.897 21.631C110.432 21.9718 110.2 22.4551 110.2 23.0812V23.1882C110.2 23.8221 110.432 24.3095 110.897 24.6502C111.372 24.991 111.967 25.1613 112.681 25.1613Z" fill="#E4EAF6"/>
</g>
<g filter="url(#filter2_d_304_10450)">
<path d="M75.6334 32.8609L60.0332 45.84C59.295 46.4541 59.8899 47.4195 61.0066 47.4195H92.2069C93.3235 47.4195 93.9185 46.4541 93.1802 45.84L77.5801 32.8609C77.0636 32.4311 76.1499 32.4311 75.6334 32.8609Z" fill="#E4EAF6"/>
</g>
<defs>
<filter id="filter0_d_304_10450" x="0.571289" y="53.0425" width="151.999" height="11.9897" filterUnits="userSpaceOnUse" color-interpolation-filters="sRGB">
<feFlood flood-opacity="0" result="BackgroundImageFix"/>
<feColorMatrix in="SourceAlpha" type="matrix" values="0 0 0 0 0 0 0 0 0 0 0 0 0 0 0 0 0 0 127 0" result="hardAlpha"/>
<feOffset dy="4"/>
<feGaussianBlur stdDeviation="2"/>
<feComposite in2="hardAlpha" operator="out"/>
<feColorMatrix type="matrix" values="0 0 0 0 0 0 0 0 0 0 0 0 0 0 0 0 0 0 0.25 0"/>
<feBlend mode="normal" in2="BackgroundImageFix" result="effect1_dropShadow_304_10450"/>
<feBlend mode="normal" in="SourceGraphic" in2="effect1_dropShadow_304_10450" result="shape"/>
</filter>
<filter id="filter1_d_304_10450" x="31.707" y="18.2671" width="89.1572" height="18.1748" filterUnits="userSpaceOnUse" color-interpolation-filters="sRGB">
<feFlood flood-opacity="0" result="BackgroundImageFix"/>
<feColorMatrix in="SourceAlpha" type="matrix" values="0 0 0 0 0 0 0 0 0 0 0 0 0 0 0 0 0 0 127 0" result="hardAlpha"/>
<feOffset dy="4"/>
<feGaussianBlur stdDeviation="2"/>
<feComposite in2="hardAlpha" operator="out"/>
<feColorMatrix type="matrix" values="0 0 0 0 0 0 0 0 0 0 0 0 0 0 0 0 0 0 0.25 0"/>
<feBlend mode="normal" in2="BackgroundImageFix" result="effect1_dropShadow_304_10450"/>
<feBlend mode="normal" in="SourceGraphic" in2="effect1_dropShadow_304_10450" result="shape"/>
</filter>
<filter id="filter2_d_304_10450" x="55.7068" y="32.5386" width="41.7998" height="22.8809" filterUnits="userSpaceOnUse" color-interpolation-filters="sRGB">
<feFlood flood-opacity="0" result="BackgroundImageFix"/>
<feColorMatrix in="SourceAlpha" type="matrix" values="0 0 0 0 0 0 0 0 0 0 0 0 0 0 0 0 0 0 127 0" result="hardAlpha"/>
<feOffset dy="4"/>
<feGaussianBlur stdDeviation="2"/>
<feComposite in2="hardAlpha" operator="out"/>
<feColorMatrix type="matrix" values="0 0 0 0 0 0 0 0 0 0 0 0 0 0 0 0 0 0 0.25 0"/>
<feBlend mode="normal" in2="BackgroundImageFix" result="effect1_dropShadow_304_10450"/>
<feBlend mode="normal" in="SourceGraphic" in2="effect1_dropShadow_304_10450" result="shape"/>
</filter>
</defs>
</svg>
