<svg width="416" height="218" viewBox="0 0 416 218" fill="none" xmlns="http://www.w3.org/2000/svg">
<g filter="url(#filter0_i_353_20602)">
<rect y="0.890137" width="416" height="216.189" rx="10" fill="#E4EAF6"/>
</g>
<path fill-rule="evenodd" clip-rule="evenodd" d="M184.749 80.347C185.133 80.1252 185.577 80.0076 186.067 80.0022C187.181 79.9899 188.639 80.8319 191.556 82.5158L214.731 95.896C217.647 97.5799 219.106 98.4219 220.22 99.7205C221.2 100.863 221.997 102.243 222.496 103.662C223.063 105.277 223.063 106.961 223.063 110.328V135.886C223.063 139.254 223.063 140.938 222.496 141.896C222.256 142.301 221.948 142.618 221.584 142.838L243.52 132.837C243.884 132.616 244.193 132.299 244.432 131.894C245 130.936 245 129.252 245 125.884V100.326C245 96.9585 245 95.2745 244.432 93.6604C243.933 92.2407 243.136 90.8607 242.156 89.7185C241.042 88.4199 239.584 87.5778 236.667 85.8939L213.492 72.5138C210.576 70.8299 209.117 69.9879 208.003 70.0001C207.513 70.0055 207.069 70.1232 206.685 70.345L184.749 80.347Z" fill="black"/>
<path d="M171 92.559C171 89.1911 171 87.5071 171.568 86.5485C172.067 85.7053 172.864 85.2453 173.844 85.2345C174.958 85.2222 176.416 86.0642 179.333 87.7482L202.508 101.128C205.424 102.812 206.883 103.654 207.997 104.953C208.977 106.095 209.773 107.475 210.273 108.895C210.84 110.509 210.84 112.193 210.84 115.561V141.118C210.84 144.486 210.84 146.17 210.273 147.129C209.773 147.972 208.977 148.432 207.997 148.443C206.883 148.455 205.424 147.613 202.508 145.929L179.333 132.549C176.416 130.865 174.958 130.023 173.844 128.724C172.864 127.582 172.067 126.202 171.568 124.782C171 123.168 171 121.484 171 118.116V92.559Z" fill="white"/>
<path fill-rule="evenodd" clip-rule="evenodd" d="M172.525 85.5794C172.909 85.3576 173.354 85.2399 173.844 85.2345C174.958 85.2223 176.416 86.0643 179.333 87.7482L202.508 101.128C205.424 102.812 206.883 103.654 207.997 104.953C208.977 106.095 209.773 107.475 210.273 108.895C210.84 110.509 210.84 112.193 210.84 115.561V141.118C210.84 144.486 210.84 146.17 210.273 147.129C210.033 147.534 209.725 147.85 209.361 148.071L221.137 143.35C221.501 143.129 221.809 142.813 222.049 142.408C222.616 141.45 222.616 139.765 222.616 136.398V110.84C222.616 107.472 222.616 105.788 222.049 104.174C221.549 102.754 220.753 101.374 219.773 100.232C218.659 98.9336 217.2 98.0915 214.284 96.4076L191.109 83.0275C188.192 81.3435 186.734 80.5016 185.62 80.5138C185.13 80.5192 184.686 80.6369 184.301 80.8586L172.525 85.5794Z" fill="white"/>
<path d="M171 92.559C171 89.1911 171 87.5071 171.568 86.5485C172.067 85.7053 172.864 85.2453 173.844 85.2345C174.958 85.2222 176.416 86.0642 179.333 87.7482L202.508 101.128C205.424 102.812 206.883 103.654 207.997 104.953C208.977 106.095 209.773 107.475 210.273 108.895C210.84 110.509 210.84 112.193 210.84 115.561V141.118C210.84 144.486 210.84 146.17 210.273 147.129C209.773 147.972 208.977 148.432 207.997 148.443C206.883 148.455 205.424 147.613 202.508 145.929L179.333 132.549C176.416 130.865 174.958 130.023 173.844 128.724C172.864 127.582 172.067 126.202 171.568 124.782C171 123.168 171 121.484 171 118.116V92.559Z" fill="white"/>
<path d="M202.649 125.162C202.649 133.216 196.843 136.392 189.681 132.257C182.519 128.122 176.713 118.241 176.713 110.187C176.713 102.134 182.519 98.9567 189.681 103.092C196.843 107.227 202.649 117.108 202.649 125.162Z" fill="#D9D9D9"/>
<path fill-rule="evenodd" clip-rule="evenodd" d="M181.302 104.217C183.374 102.936 186.317 103.088 189.58 104.972C195.856 108.596 200.944 117.254 200.944 124.312C200.944 127.699 199.772 130.102 197.859 131.285L200.463 129.781C202.376 128.599 203.548 126.196 203.548 122.808C203.548 115.751 198.46 107.092 192.184 103.469C188.921 101.585 185.978 101.433 183.906 102.714L181.302 104.217Z" fill="white"/>
<path d="M200.944 124.312C200.944 131.369 195.856 134.153 189.58 130.53C183.304 126.906 178.216 118.248 178.216 111.19C178.216 104.133 183.304 101.349 189.58 104.972C195.856 108.596 200.944 117.254 200.944 124.312Z" fill="black"/>
<path fill-rule="evenodd" clip-rule="evenodd" d="M180.234 102.23C182.599 100.768 185.957 100.942 189.681 103.092C196.843 107.227 202.649 117.108 202.649 125.162C202.649 129.028 201.311 131.77 199.128 133.119L201.732 131.616C203.915 130.266 205.253 127.524 205.253 123.658C205.253 115.604 199.447 105.723 192.285 101.588C188.561 99.4381 185.203 99.265 182.838 100.727L180.234 102.23Z" fill="white"/>
<defs>
<filter id="filter0_i_353_20602" x="0" y="0.890137" width="416" height="220.189" filterUnits="userSpaceOnUse" color-interpolation-filters="sRGB">
<feFlood flood-opacity="0" result="BackgroundImageFix"/>
<feBlend mode="normal" in="SourceGraphic" in2="BackgroundImageFix" result="shape"/>
<feColorMatrix in="SourceAlpha" type="matrix" values="0 0 0 0 0 0 0 0 0 0 0 0 0 0 0 0 0 0 127 0" result="hardAlpha"/>
<feOffset dy="4"/>
<feGaussianBlur stdDeviation="2"/>
<feComposite in2="hardAlpha" operator="arithmetic" k2="-1" k3="1"/>
<feColorMatrix type="matrix" values="0 0 0 0 0 0 0 0 0 0 0 0 0 0 0 0 0 0 0.25 0"/>
<feBlend mode="normal" in2="shape" result="effect1_innerShadow_353_20602"/>
</filter>
</defs>
</svg>
