<svg width="145" height="58" viewBox="0 0 145 58" fill="none" xmlns="http://www.w3.org/2000/svg">
<path fill-rule="evenodd" clip-rule="evenodd" d="M144.571 0.499023H0.571533V4.48866H144.571V0.499023Z" fill="#6580E1" fill-opacity="0.6"/>
<path fill-rule="evenodd" clip-rule="evenodd" d="M0.571533 0.499023C0.571533 29.6468 32.8068 53.2757 72.5711 53.2757C112.336 53.2757 144.571 29.6468 144.571 0.499023V4.48866C144.571 33.6364 112.336 57.2654 72.5711 57.2654C32.8068 57.2654 0.571533 33.6364 0.571533 4.48866V0.499023Z" fill="#6580E1" fill-opacity="0.6"/>
<path d="M72.5713 53.2738C112.336 53.2738 144.571 29.6448 144.571 0.49707H0.571777C0.571777 29.6448 32.8071 53.2738 72.5713 53.2738Z" fill="#405CB0"/>
<g filter="url(#filter0_d_293_3003)">
<path d="M30.4092 36.6545V28.417H32.047V29.261H32.3065C32.5119 28.9995 32.82 28.7657 33.2308 28.5597C33.6524 28.3536 34.2524 28.2506 35.0308 28.2506C35.7011 28.2506 36.3118 28.3695 36.8632 28.6072C37.4253 28.8449 37.874 29.1896 38.2091 29.6413C38.5551 30.0851 38.728 30.624 38.728 31.2579V31.4362C38.728 32.0702 38.5605 32.613 38.2253 33.0647C37.8902 33.5084 37.4416 33.8492 36.8794 34.0869C36.3173 34.3247 35.7011 34.4435 35.0308 34.4435C34.5119 34.4435 34.074 34.396 33.7173 34.3009C33.3605 34.2058 33.074 34.0869 32.8578 33.9443C32.6416 33.7937 32.4686 33.6392 32.3389 33.4807H32.0794V36.6545H30.4092ZM34.5443 33.3737C35.2794 33.3737 35.8794 33.2034 36.3443 32.8626C36.8091 32.5219 37.0415 32.0345 37.0415 31.4006V31.2936C37.0415 30.6675 36.8038 30.1842 36.328 29.8434C35.8632 29.5026 35.2686 29.3323 34.5443 29.3323C33.8308 29.3323 33.2362 29.5026 32.7605 29.8434C32.2957 30.1842 32.0632 30.6675 32.0632 31.2936V31.4006C32.0632 32.0345 32.2957 32.5219 32.7605 32.8626C33.2362 33.2034 33.8308 33.3737 34.5443 33.3737ZM41.7706 34.2771V28.417H43.4084V29.1064H43.6679C43.7976 28.8608 44.003 28.6825 44.2841 28.5715C44.576 28.4527 44.9328 28.3932 45.3544 28.3932H46.3111V29.4987H45.2895C44.7489 29.4987 44.3057 29.6096 43.9598 29.8315C43.6138 30.0455 43.4409 30.3783 43.4409 30.83V34.2771H41.7706ZM52.3944 34.4435C51.5836 34.4435 50.8755 34.3207 50.2701 34.0751C49.6647 33.8215 49.189 33.4688 48.8431 33.0171C48.508 32.5575 48.3404 32.0266 48.3404 31.4243V31.2817C48.3404 30.6715 48.508 30.1406 48.8431 29.6889C49.1782 29.2293 49.6431 28.8766 50.2377 28.631C50.8431 28.3774 51.5404 28.2506 52.3296 28.2506C53.0971 28.2506 53.7674 28.3774 54.3404 28.631C54.9242 28.8766 55.3782 29.2214 55.7025 29.6651C56.0269 30.1089 56.189 30.6279 56.189 31.2223V31.6858H50.0431C50.0647 32.2009 50.2971 32.613 50.7404 32.9221C51.1945 33.2232 51.7566 33.3737 52.4269 33.3737C53.0539 33.3737 53.5241 33.2707 53.8377 33.0647C54.162 32.8587 54.4106 32.6209 54.5836 32.3515L55.962 32.8745C55.8106 33.0964 55.589 33.3301 55.2971 33.5758C55.016 33.8215 54.643 34.0275 54.1782 34.1939C53.7133 34.3603 53.1187 34.4435 52.3944 34.4435ZM50.0593 30.7468H54.4863C54.4431 30.303 54.2269 29.9583 53.8377 29.7127C53.4485 29.4591 52.9403 29.3323 52.3134 29.3323C51.6863 29.3323 51.1728 29.4591 50.7728 29.7127C50.3836 29.9583 50.1458 30.303 50.0593 30.7468ZM60.7361 34.2771L58.0442 28.417H59.8118L61.9361 33.3737H62.1955L64.3198 28.417H66.0874L63.3955 34.2771H60.7361ZM69.0214 34.4435C68.643 34.4435 68.3241 34.3524 68.0647 34.1702C67.816 33.9879 67.6917 33.7541 67.6917 33.4688C67.6917 33.1836 67.816 32.9538 68.0647 32.7794C68.3241 32.5972 68.643 32.506 69.0214 32.506C69.3998 32.506 69.7133 32.5972 69.9619 32.7794C70.2214 32.9617 70.3511 33.1915 70.3511 33.4688C70.3511 33.7541 70.2214 33.9879 69.9619 34.1702C69.7133 34.3524 69.3998 34.4435 69.0214 34.4435ZM81.3457 34.4435C80.3294 34.4435 79.4862 34.2771 78.816 33.9443C78.1456 33.6115 77.7349 33.1083 77.5835 32.4347L79.1403 32.1613C79.2267 32.4862 79.3727 32.7438 79.5781 32.9339C79.7835 33.1241 80.0375 33.2588 80.3403 33.3381C80.6538 33.4173 80.9889 33.457 81.3457 33.457C81.8753 33.457 82.2808 33.3817 82.5619 33.2311C82.8538 33.0805 82.9997 32.8864 82.9997 32.6487C82.9997 32.4109 82.8645 32.2366 82.5943 32.1257C82.324 32.0147 81.924 31.9236 81.3943 31.8523L80.843 31.7809C80.3024 31.7096 79.8105 31.6066 79.3673 31.4719C78.924 31.3372 78.5727 31.1509 78.3133 30.9132C78.0538 30.6755 77.9241 30.3704 77.9241 29.9979C77.9241 29.4432 78.2051 29.0153 78.7673 28.7142C79.3294 28.4051 80.0754 28.2506 81.0051 28.2506C81.9024 28.2506 82.6375 28.4012 83.2105 28.7023C83.7943 28.9955 84.1726 29.3957 84.3456 29.9028L82.7889 30.2238C82.6916 29.8672 82.4862 29.6176 82.1727 29.4749C81.8591 29.3243 81.4699 29.2491 81.0051 29.2491C80.5511 29.2491 80.1943 29.3125 79.9349 29.4393C79.6754 29.5581 79.5457 29.7285 79.5457 29.9504C79.5457 30.1881 79.67 30.3625 79.9186 30.4734C80.1781 30.5843 80.524 30.6675 80.9565 30.723L81.524 30.7943C82.097 30.8657 82.6213 30.9647 83.097 31.0915C83.5727 31.2183 83.9456 31.4006 84.2159 31.6383C84.497 31.876 84.6375 32.193 84.6375 32.5892C84.6375 33.1756 84.3402 33.6313 83.7457 33.9562C83.151 34.2811 82.3511 34.4435 81.3457 34.4435ZM90.3885 34.2771C89.9021 34.2771 89.5129 34.1702 89.221 33.9562C88.9399 33.7422 88.7994 33.457 88.7994 33.1004V29.4512H86.594V28.417H88.7994V26.4795H90.4696V28.417H92.8534V29.4512H90.4696V32.8864C90.4696 33.1241 90.621 33.243 90.9237 33.243H92.5939V34.2771H90.3885ZM99.1687 34.4435C98.3579 34.4435 97.6495 34.3207 97.0444 34.0751C96.4385 33.8215 95.9631 33.4688 95.6173 33.0171C95.282 32.5575 95.1146 32.0266 95.1146 31.4243V31.2817C95.1146 30.6715 95.282 30.1406 95.6173 29.6889C95.952 29.2293 96.4171 28.8766 97.0119 28.631C97.6171 28.3774 98.3144 28.2506 99.1038 28.2506C99.8712 28.2506 100.541 28.3774 101.115 28.631C101.698 28.8766 102.152 29.2214 102.477 29.6651C102.801 30.1089 102.963 30.6279 102.963 31.2223V31.6858H96.8173C96.8387 32.2009 97.071 32.613 97.5146 32.9221C97.9687 33.2232 98.5304 33.3737 99.2011 33.3737C99.8277 33.3737 100.298 33.2707 100.612 33.0647C100.936 32.8587 101.185 32.6209 101.358 32.3515L102.736 32.8745C102.584 33.0964 102.363 33.3301 102.071 33.5758C101.79 33.8215 101.417 34.0275 100.952 34.1939C100.487 34.3603 99.8926 34.4435 99.1687 34.4435ZM96.8335 30.7468H101.261C101.217 30.303 101.001 29.9583 100.612 29.7127C100.223 29.4591 99.7142 29.3323 99.0876 29.3323C98.4604 29.3323 97.9466 29.4591 97.5471 29.7127C97.1579 29.9583 96.9198 30.303 96.8335 30.7468ZM105.946 36.6545V28.417H107.584V29.261H107.844C108.049 28.9995 108.357 28.7657 108.768 28.5597C109.19 28.3536 109.79 28.2506 110.568 28.2506C111.239 28.2506 111.849 28.3695 112.4 28.6072C112.963 28.8449 113.412 29.1896 113.746 29.6413C114.093 30.0851 114.265 30.624 114.265 31.2579V31.4362C114.265 32.0702 114.098 32.613 113.763 33.0647C113.428 33.5084 112.979 33.8492 112.417 34.0869C111.855 34.3247 111.239 34.4435 110.568 34.4435C110.049 34.4435 109.611 34.396 109.254 34.3009C108.898 34.2058 108.612 34.0869 108.395 33.9443C108.179 33.7937 108.006 33.6392 107.876 33.4807H107.617V36.6545H105.946ZM110.081 33.3737C110.817 33.3737 111.417 33.2034 111.881 32.8626C112.347 32.5219 112.579 32.0345 112.579 31.4006V31.2936C112.579 30.6675 112.341 30.1842 111.865 29.8434C111.401 29.5026 110.806 29.3323 110.081 29.3323C109.368 29.3323 108.774 29.5026 108.298 29.8434C107.833 30.1842 107.6 30.6675 107.6 31.2936V31.4006C107.6 32.0345 107.833 32.5219 108.298 32.8626C108.774 33.2034 109.368 33.3737 110.081 33.3737Z" fill="#E4EAF6"/>
<path d="M73.7488 18.9062L89.264 5.80778C89.9933 5.19217 89.3968 4.2334 88.2845 4.2334H57.2539C56.1417 4.2334 55.5451 5.19217 56.2743 5.80778L71.7896 18.9062C72.3069 19.3429 73.2316 19.3429 73.7488 18.9062Z" fill="#E4EAF6"/>
</g>
<defs>
<filter id="filter0_d_293_3003" x="26.4092" y="4.2334" width="91.856" height="40.4209" filterUnits="userSpaceOnUse" color-interpolation-filters="sRGB">
<feFlood flood-opacity="0" result="BackgroundImageFix"/>
<feColorMatrix in="SourceAlpha" type="matrix" values="0 0 0 0 0 0 0 0 0 0 0 0 0 0 0 0 0 0 127 0" result="hardAlpha"/>
<feOffset dy="4"/>
<feGaussianBlur stdDeviation="2"/>
<feComposite in2="hardAlpha" operator="out"/>
<feColorMatrix type="matrix" values="0 0 0 0 0 0 0 0 0 0 0 0 0 0 0 0 0 0 0.25 0"/>
<feBlend mode="normal" in2="BackgroundImageFix" result="effect1_dropShadow_293_3003"/>
<feBlend mode="normal" in="SourceGraphic" in2="effect1_dropShadow_293_3003" result="shape"/>
</filter>
</defs>
</svg>
