<svg width="145" height="58" viewBox="0 0 145 58" fill="none" xmlns="http://www.w3.org/2000/svg">
<path fill-rule="evenodd" clip-rule="evenodd" d="M144.571 0.499512H0.571533V4.48915H144.571V0.499512Z" fill="#F5F5F5"/>
<path fill-rule="evenodd" clip-rule="evenodd" d="M0.571533 0.499512C0.571533 29.6473 32.8068 53.2762 72.5711 53.2762C112.336 53.2762 144.571 29.6473 144.571 0.499512V4.48915C144.571 33.6369 112.336 57.2659 72.5711 57.2659C32.8068 57.2659 0.571533 33.6369 0.571533 4.48915V0.499512Z" fill="#F5F5F5"/>
<path d="M72.5713 53.2743C112.336 53.2743 144.571 29.6453 144.571 0.497559H0.571777C0.571777 29.6453 32.8071 53.2743 72.5713 53.2743Z" fill="#F5F5F5"/>
<path d="M30.4092 36.655V28.4175H32.047V29.2615H32.3065C32.5119 29 32.82 28.7662 33.2308 28.5601C33.6524 28.3541 34.2524 28.2511 35.0308 28.2511C35.7011 28.2511 36.3118 28.37 36.8632 28.6077C37.4253 28.8454 37.874 29.1901 38.2091 29.6418C38.5551 30.0856 38.728 30.6245 38.728 31.2584V31.4367C38.728 32.0707 38.5605 32.6135 38.2253 33.0652C37.8902 33.5089 37.4416 33.8497 36.8794 34.0874C36.3173 34.3252 35.7011 34.444 35.0308 34.444C34.5119 34.444 34.074 34.3965 33.7173 34.3014C33.3605 34.2063 33.074 34.0874 32.8578 33.9448C32.6416 33.7942 32.4686 33.6397 32.3389 33.4812H32.0794V36.655H30.4092ZM34.5443 33.3742C35.2794 33.3742 35.8794 33.2039 36.3443 32.8631C36.8091 32.5223 37.0415 32.035 37.0415 31.4011V31.2941C37.0415 30.668 36.8038 30.1847 36.328 29.8439C35.8632 29.5031 35.2686 29.3328 34.5443 29.3328C33.8308 29.3328 33.2362 29.5031 32.7605 29.8439C32.2957 30.1847 32.0632 30.668 32.0632 31.2941V31.4011C32.0632 32.035 32.2957 32.5223 32.7605 32.8631C33.2362 33.2039 33.8308 33.3742 34.5443 33.3742ZM41.7706 34.2776V28.4175H43.4084V29.1069H43.6679C43.7976 28.8613 44.003 28.683 44.2841 28.572C44.576 28.4532 44.9328 28.3937 45.3544 28.3937H46.3111V29.4992H45.2895C44.7489 29.4992 44.3057 29.6101 43.9598 29.832C43.6138 30.046 43.4409 30.3788 43.4409 30.8305V34.2776H41.7706ZM52.3944 34.444C51.5836 34.444 50.8755 34.3212 50.2701 34.0756C49.6647 33.822 49.189 33.4693 48.8431 33.0176C48.508 32.558 48.3404 32.0271 48.3404 31.4248V31.2822C48.3404 30.672 48.508 30.1411 48.8431 29.6894C49.1782 29.2297 49.6431 28.8771 50.2377 28.6315C50.8431 28.3779 51.5404 28.2511 52.3296 28.2511C53.0971 28.2511 53.7674 28.3779 54.3404 28.6315C54.9242 28.8771 55.3782 29.2219 55.7025 29.6656C56.0269 30.1094 56.189 30.6284 56.189 31.2228V31.6863H50.0431C50.0647 32.2014 50.2971 32.6135 50.7404 32.9225C51.1945 33.2237 51.7566 33.3742 52.4269 33.3742C53.0539 33.3742 53.5241 33.2712 53.8377 33.0652C54.162 32.8592 54.4106 32.6214 54.5836 32.352L55.962 32.875C55.8106 33.0969 55.589 33.3306 55.2971 33.5763C55.016 33.822 54.643 34.028 54.1782 34.1944C53.7133 34.3608 53.1187 34.444 52.3944 34.444ZM50.0593 30.7473H54.4863C54.4431 30.3035 54.2269 29.9588 53.8377 29.7131C53.4485 29.4596 52.9403 29.3328 52.3134 29.3328C51.6863 29.3328 51.1728 29.4596 50.7728 29.7131C50.3836 29.9588 50.1458 30.3035 50.0593 30.7473ZM60.7361 34.2776L58.0442 28.4175H59.8118L61.9361 33.3742H62.1955L64.3198 28.4175H66.0874L63.3955 34.2776H60.7361ZM69.0214 34.444C68.643 34.444 68.3241 34.3529 68.0647 34.1706C67.816 33.9884 67.6917 33.7546 67.6917 33.4693C67.6917 33.1841 67.816 32.9543 68.0647 32.7799C68.3241 32.5977 68.643 32.5065 69.0214 32.5065C69.3998 32.5065 69.7133 32.5977 69.9619 32.7799C70.2214 32.9622 70.3511 33.192 70.3511 33.4693C70.3511 33.7546 70.2214 33.9884 69.9619 34.1706C69.7133 34.3529 69.3998 34.444 69.0214 34.444ZM81.3457 34.444C80.3294 34.444 79.4862 34.2776 78.816 33.9448C78.1456 33.612 77.7349 33.1088 77.5835 32.4352L79.1403 32.1618C79.2267 32.4867 79.3727 32.7442 79.5781 32.9344C79.7835 33.1246 80.0375 33.2593 80.3403 33.3386C80.6538 33.4178 80.9889 33.4574 81.3457 33.4574C81.8753 33.4574 82.2808 33.3822 82.5619 33.2316C82.8538 33.081 82.9997 32.8869 82.9997 32.6492C82.9997 32.4114 82.8645 32.2371 82.5943 32.1261C82.324 32.0152 81.924 31.9241 81.3943 31.8527L80.843 31.7814C80.3024 31.7101 79.8105 31.6071 79.3673 31.4724C78.924 31.3377 78.5727 31.1514 78.3133 30.9137C78.0538 30.676 77.9241 30.3709 77.9241 29.9984C77.9241 29.4437 78.2051 29.0158 78.7673 28.7147C79.3294 28.4056 80.0754 28.2511 81.0051 28.2511C81.9024 28.2511 82.6375 28.4017 83.2105 28.7028C83.7943 28.996 84.1726 29.3962 84.3456 29.9033L82.7889 30.2243C82.6916 29.8677 82.4862 29.6181 82.1727 29.4754C81.8591 29.3248 81.4699 29.2496 81.0051 29.2496C80.5511 29.2496 80.1943 29.3129 79.9349 29.4398C79.6754 29.5586 79.5457 29.729 79.5457 29.9509C79.5457 30.1886 79.67 30.363 79.9186 30.4739C80.1781 30.5848 80.524 30.668 80.9565 30.7235L81.524 30.7948C82.097 30.8662 82.6213 30.9652 83.097 31.092C83.5727 31.2188 83.9456 31.4011 84.2159 31.6388C84.497 31.8765 84.6375 32.1935 84.6375 32.5897C84.6375 33.1761 84.3402 33.6318 83.7457 33.9567C83.151 34.2816 82.3511 34.444 81.3457 34.444ZM90.3885 34.2776C89.9021 34.2776 89.5129 34.1706 89.221 33.9567C88.9399 33.7427 88.7994 33.4574 88.7994 33.1008V29.4516H86.594V28.4175H88.7994V26.48H90.4696V28.4175H92.8534V29.4516H90.4696V32.8869C90.4696 33.1246 90.621 33.2435 90.9237 33.2435H92.5939V34.2776H90.3885ZM99.1687 34.444C98.3579 34.444 97.6495 34.3212 97.0444 34.0756C96.4385 33.822 95.9631 33.4693 95.6173 33.0176C95.282 32.558 95.1146 32.0271 95.1146 31.4248V31.2822C95.1146 30.672 95.282 30.1411 95.6173 29.6894C95.952 29.2297 96.4171 28.8771 97.0119 28.6315C97.6171 28.3779 98.3144 28.2511 99.1038 28.2511C99.8712 28.2511 100.541 28.3779 101.115 28.6315C101.698 28.8771 102.152 29.2219 102.477 29.6656C102.801 30.1094 102.963 30.6284 102.963 31.2228V31.6863H96.8173C96.8387 32.2014 97.071 32.6135 97.5146 32.9225C97.9687 33.2237 98.5304 33.3742 99.2011 33.3742C99.8277 33.3742 100.298 33.2712 100.612 33.0652C100.936 32.8592 101.185 32.6214 101.358 32.352L102.736 32.875C102.584 33.0969 102.363 33.3306 102.071 33.5763C101.79 33.822 101.417 34.028 100.952 34.1944C100.487 34.3608 99.8926 34.444 99.1687 34.444ZM96.8335 30.7473H101.261C101.217 30.3035 101.001 29.9588 100.612 29.7131C100.223 29.4596 99.7142 29.3328 99.0876 29.3328C98.4604 29.3328 97.9466 29.4596 97.5471 29.7131C97.1579 29.9588 96.9198 30.3035 96.8335 30.7473ZM105.946 36.655V28.4175H107.584V29.2615H107.844C108.049 29 108.357 28.7662 108.768 28.5601C109.19 28.3541 109.79 28.2511 110.568 28.2511C111.239 28.2511 111.849 28.37 112.4 28.6077C112.963 28.8454 113.412 29.1901 113.746 29.6418C114.093 30.0856 114.265 30.6245 114.265 31.2584V31.4367C114.265 32.0707 114.098 32.6135 113.763 33.0652C113.428 33.5089 112.979 33.8497 112.417 34.0874C111.855 34.3252 111.239 34.444 110.568 34.444C110.049 34.444 109.611 34.3965 109.254 34.3014C108.898 34.2063 108.612 34.0874 108.395 33.9448C108.179 33.7942 108.006 33.6397 107.876 33.4812H107.617V36.655H105.946ZM110.081 33.3742C110.817 33.3742 111.417 33.2039 111.881 32.8631C112.347 32.5223 112.579 32.035 112.579 31.4011V31.2941C112.579 30.668 112.341 30.1847 111.865 29.8439C111.401 29.5031 110.806 29.3328 110.081 29.3328C109.368 29.3328 108.774 29.5031 108.298 29.8439C107.833 30.1847 107.6 30.668 107.6 31.2941V31.4011C107.6 32.035 107.833 32.5223 108.298 32.8631C108.774 33.2039 109.368 33.3742 110.081 33.3742Z" fill="#D9D9D9"/>
<path d="M73.7488 18.9067L89.264 5.80827C89.9933 5.19265 89.3968 4.23389 88.2845 4.23389H57.2539C56.1417 4.23389 55.5451 5.19265 56.2743 5.80827L71.7896 18.9067C72.3069 19.3433 73.2316 19.3433 73.7488 18.9067Z" fill="#D9D9D9"/>
</svg>
