<svg width="1272" height="22" viewBox="0 0 1272 22" fill="none" xmlns="http://www.w3.org/2000/svg">
<g filter="url(#filter0_i_474_26098)">
<path d="M1271.67 11C1271.67 5.10896 1266.89 0.333333 1261 0.333333C1255.11 0.333333 1250.33 5.10896 1250.33 11C1250.33 16.891 1255.11 21.6667 1261 21.6667C1266.89 21.6667 1271.67 16.891 1271.67 11ZM21.6666 11C21.6666 5.10896 16.891 0.333333 11 0.333333C5.10889 0.333333 0.333252 5.10896 0.333252 11C0.333252 16.891 5.10889 21.6667 11 21.6667C16.891 21.6667 21.6666 16.891 21.6666 11ZM1261 9L11 9V13L1261 13V9Z" fill="#D9D9D9"/>
</g>
<defs>
<filter id="filter0_i_474_26098" x="0.332031" y="0.333252" width="1271.34" height="22.3335" filterUnits="userSpaceOnUse" color-interpolation-filters="sRGB">
<feFlood flood-opacity="0" result="BackgroundImageFix"/>
<feBlend mode="normal" in="SourceGraphic" in2="BackgroundImageFix" result="shape"/>
<feColorMatrix in="SourceAlpha" type="matrix" values="0 0 0 0 0 0 0 0 0 0 0 0 0 0 0 0 0 0 127 0" result="hardAlpha"/>
<feOffset dy="2"/>
<feGaussianBlur stdDeviation="0.5"/>
<feComposite in2="hardAlpha" operator="arithmetic" k2="-1" k3="1"/>
<feColorMatrix type="matrix" values="0 0 0 0 0 0 0 0 0 0 0 0 0 0 0 0 0 0 0.25 0"/>
<feBlend mode="normal" in2="shape" result="effect1_innerShadow_474_26098"/>
</filter>
</defs>
</svg>
