<svg width="1066" height="805" viewBox="0 0 1066 805" fill="none" xmlns="http://www.w3.org/2000/svg">
<path fill-rule="evenodd" clip-rule="evenodd" d="M501 386C514.807 386 526 374.807 526 361V25C526 11.1929 537.193 0 551 0H1041C1054.81 0 1066 11.1929 1066 25V410C1066 410.291 1065.99 410.582 1065.99 410.871C1065.94 412.13 1065.88 413.389 1065.91 414.648C1066 417.845 1066 421.572 1066 426V765C1066 779.001 1066 786.002 1063.28 791.35C1060.88 796.054 1057.05 799.878 1052.35 802.275C1047 805 1040 805 1026 805H40C25.9987 805 18.998 805 13.6502 802.275C8.94619 799.878 5.12167 796.054 2.72484 791.35C0 786.002 0 779.001 0 765V426C0 411.999 0 404.998 2.72484 399.65C5.12167 394.946 8.94619 391.122 13.6502 388.725C18.998 386 25.9987 386 40 386H501Z" fill="#BA1DF1"/>
</svg>
