<svg width="64" height="48" viewBox="0 0 64 48" fill="none" xmlns="http://www.w3.org/2000/svg">
<g filter="url(#filter0_i_81_13570)">
<path d="M64 30.1961C63.995 34.9165 62.1513 39.442 58.8734 42.7798C55.5954 46.1176 51.151 47.9949 46.5153 48H31.1625V43.6584H46.5153C50.0217 43.6584 53.3845 42.24 55.8639 39.7154C58.3433 37.1907 59.7362 33.7665 59.7362 30.1961C59.7362 26.6257 58.3433 23.2015 55.8639 20.6769C53.3845 18.1522 50.0217 16.7339 46.5153 16.7339H8.16432L17.3132 26.0556L14.2977 29.1261L0 14.5631L14.302 0L17.3132 3.07054L8.16 12.3923H46.5153C51.151 12.3973 55.5954 14.2747 58.8734 17.6125C62.1513 20.9502 63.995 25.4758 64 30.1961Z" fill="#EAB4FE"/>
</g>
<defs>
<filter id="filter0_i_81_13570" x="0" y="0" width="64" height="52" filterUnits="userSpaceOnUse" color-interpolation-filters="sRGB">
<feFlood flood-opacity="0" result="BackgroundImageFix"/>
<feBlend mode="normal" in="SourceGraphic" in2="BackgroundImageFix" result="shape"/>
<feColorMatrix in="SourceAlpha" type="matrix" values="0 0 0 0 0 0 0 0 0 0 0 0 0 0 0 0 0 0 127 0" result="hardAlpha"/>
<feOffset dy="4"/>
<feGaussianBlur stdDeviation="2"/>
<feComposite in2="hardAlpha" operator="arithmetic" k2="-1" k3="1"/>
<feColorMatrix type="matrix" values="0 0 0 0 0 0 0 0 0 0 0 0 0 0 0 0 0 0 0.25 0"/>
<feBlend mode="normal" in2="shape" result="effect1_innerShadow_81_13570"/>
</filter>
</defs>
</svg>
