<svg width="71" height="100" viewBox="0 0 71 100" fill="none" xmlns="http://www.w3.org/2000/svg">
<path d="M66.6658 0H4.16661C1.86546 0 0 1.86546 0 4.16661V95.8321C0 98.1333 1.86546 99.9987 4.16661 99.9987H66.6658C68.967 99.9987 70.8324 98.1333 70.8324 95.8321V4.16661C70.8324 1.86546 68.967 0 66.6658 0Z" fill="#176AEA"/>
<path d="M4.16661 0H8.33323V99.9987H4.16661C3.06156 99.9987 2.00177 99.5598 1.22037 98.7784C0.438982 97.997 0 96.9372 0 95.8321V4.16661C0 3.06156 0.438982 2.00176 1.22037 1.22037C2.00177 0.438981 3.06156 0 4.16661 0Z" fill="#83ACFF"/>
<path d="M66.6658 91.6659H4.16661C3.06156 91.6659 2.00177 92.1049 1.22037 92.8863C0.438982 93.6676 0 94.7274 0 95.8325C0 96.9376 0.438982 97.9973 1.22037 98.7787C2.00177 99.5601 3.06156 99.9991 4.16661 99.9991H66.6658C67.7709 99.9991 68.8307 99.5601 69.6121 98.7787C70.3935 97.9973 70.8324 96.9376 70.8324 95.8325V87.4993C70.8291 88.6033 70.3891 89.6612 69.6084 90.4419C68.8277 91.2225 67.7699 91.6626 66.6658 91.6659Z" fill="#A09B8C"/>
<path d="M66.6658 91.6659H4.16661C3.06156 91.6659 2.00177 92.1049 1.22037 92.8863C0.438982 93.6676 0 94.7274 0 95.8325C0 96.9376 0.438982 97.9973 1.22037 98.7787C2.00177 99.5601 3.06156 99.9991 4.16661 99.9991H66.6658C67.7709 99.9991 68.8307 99.5601 69.6121 98.7787C70.3935 97.9973 70.8324 96.9376 70.8324 95.8325V87.4993C70.8291 88.6033 70.3891 89.6612 69.6084 90.4419C68.8277 91.2225 67.7699 91.6626 66.6658 91.6659Z" fill="#F1F2F2"/>
<path d="M70.8321 91.6663V95.8329C70.8288 96.9369 70.3887 97.9948 69.6081 98.7755C68.8274 99.5561 67.7695 99.9962 66.6655 99.9995H4.16625C3.43522 99.9987 2.71725 99.8057 2.08444 99.4397C1.45163 99.0737 0.926249 98.5476 0.561058 97.9143C0.195867 97.281 0.00371871 96.5628 0.00390639 95.8318C0.00409407 95.1008 0.196612 94.3827 0.562129 93.7496C0.927463 94.3823 1.45277 94.9079 2.08536 95.2736C2.71795 95.6392 3.43558 95.8321 4.16625 95.8329H66.6655C67.7695 95.8296 68.8274 95.3895 69.6081 94.6089C70.3887 93.8282 70.8288 92.7703 70.8321 91.6663Z" fill="#4C5665"/>
<path d="M56.2495 12.4995H20.8333C19.6827 12.4995 18.75 13.4322 18.75 14.5828V31.2493C18.75 32.3999 19.6827 33.3326 20.8333 33.3326H56.2495C57.4001 33.3326 58.3328 32.3999 58.3328 31.2493V14.5828C58.3328 13.4322 57.4001 12.4995 56.2495 12.4995Z" fill="#83ACFF"/>
</svg>
