<svg width="127" height="100" viewBox="0 0 127 100" fill="none" xmlns="http://www.w3.org/2000/svg">
<mask id="mask0_652_3151" style="mask-type:alpha" maskUnits="userSpaceOnUse" x="2" y="0" width="125" height="101">
<path fill-rule="evenodd" clip-rule="evenodd" d="M38.9474 81.7415C38.9474 91.8256 30.7726 100 20.6885 100C10.6045 100 2.42969 91.8256 2.42969 81.7415C2.42969 72.8276 8.81734 65.4056 17.265 63.8031L17.265 50.0738C17.265 49.1659 17.6257 48.2951 18.2677 47.653C18.9098 47.011 19.7806 46.6503 20.6885 46.6503L60.9151 46.6503L60.9151 36.3446C52.4674 34.7421 46.0797 27.3201 46.0797 18.4062C46.0797 8.32207 54.2545 0.147301 64.3386 0.147301C74.4227 0.147301 82.5974 8.32207 82.5974 18.4062C82.5974 27.3201 76.2098 34.7421 67.7621 36.3446V46.6503H107.989C109.879 46.6503 111.412 48.1831 111.412 50.0738V63.8031C119.86 65.4056 126.247 72.8276 126.247 81.7415C126.247 91.8256 118.073 100 107.989 100C97.9046 100 89.7298 91.8256 89.7298 81.7415C89.7298 72.8276 96.1174 65.4056 104.565 63.8031V53.4974H67.7621V63.8031C76.2098 65.4056 82.5974 72.8276 82.5974 81.7415C82.5974 91.8256 74.4227 100 64.3386 100C54.2545 100 46.0797 91.8256 46.0797 81.7415C46.0797 72.8276 52.4674 65.4056 60.9151 63.8031V53.4974L24.1121 53.4974V63.8031C32.5597 65.4056 38.9474 72.8276 38.9474 81.7415Z" fill="#BA1DF1"/>
</mask>
<g mask="url(#mask0_652_3151)">
<path fill-rule="evenodd" clip-rule="evenodd" d="M38.7325 81.7415C38.7325 91.8256 30.5578 100 20.4737 100C10.3896 100 2.21484 91.8256 2.21484 81.7415C2.21484 72.8276 8.60249 65.4056 17.0502 63.8031L17.0502 50.0738C17.0502 49.1659 17.4109 48.2951 18.0529 47.653C18.6949 47.011 19.5657 46.6503 20.4737 46.6503L60.7002 46.6503L60.7002 36.3446C52.2525 34.7421 45.8649 27.3201 45.8649 18.4062C45.8649 8.32207 54.0397 0.147301 64.1237 0.147301C74.2078 0.147301 82.3826 8.32207 82.3826 18.4062C82.3826 27.3201 75.9949 34.7421 67.5473 36.3446V46.6503H107.774C109.665 46.6503 111.197 48.1831 111.197 50.0738V63.8031C119.645 65.4056 126.033 72.8276 126.033 81.7415C126.033 91.8256 117.858 100 107.774 100C97.6897 100 89.515 91.8256 89.515 81.7415C89.515 72.8276 95.9026 65.4056 104.35 63.8031V53.4974H67.5473V63.8031C75.9949 65.4056 82.3826 72.8276 82.3826 81.7415C82.3826 91.8256 74.2078 100 64.1237 100C54.0397 100 45.8649 91.8256 45.8649 81.7415C45.8649 72.8276 52.2525 65.4056 60.7002 63.8031V53.4974L23.8972 53.4974V63.8031C32.3449 65.4056 38.7325 72.8276 38.7325 81.7415Z" fill="#BA1DF1"/>
<path fill-rule="evenodd" clip-rule="evenodd" d="M36.5919 81.7415C36.5919 91.8256 28.4171 100 18.3331 100C8.24898 100 0.0742188 91.8256 0.0742188 81.7415C0.0742188 72.8276 6.46187 65.4056 14.9095 63.8031L14.9095 50.0738C14.9095 49.1659 15.2702 48.2951 15.9123 47.653C16.5543 47.011 17.4251 46.6503 18.3331 46.6503L58.5596 46.6503L58.5596 36.3446C50.1119 34.7421 43.7243 27.3201 43.7243 18.4062C43.7243 8.32207 51.899 0.147301 61.9831 0.147301C72.0672 0.147301 80.242 8.32207 80.242 18.4062C80.242 27.3201 73.8543 34.7421 65.4067 36.3446V46.6503H105.633C107.524 46.6503 109.057 48.1831 109.057 50.0738V63.8031C117.504 65.4056 123.892 72.8276 123.892 81.7415C123.892 91.8256 115.717 100 105.633 100C95.5491 100 87.3743 91.8256 87.3743 81.7415C87.3743 72.8276 93.762 65.4056 102.21 63.8031V53.4974H65.4067V63.8031C73.8543 65.4056 80.242 72.8276 80.242 81.7415C80.242 91.8256 72.0672 100 61.9831 100C51.899 100 43.7243 91.8256 43.7243 81.7415C43.7243 72.8276 50.1119 65.4056 58.5596 63.8031V53.4974L21.7566 53.4974V63.8031C30.2043 65.4056 36.5919 72.8276 36.5919 81.7415Z" fill="#EAB4FE"/>
</g>
<path fill-rule="evenodd" clip-rule="evenodd" d="M107.559 99.8531C97.4749 99.8531 89.3001 91.6783 89.3001 81.5942C89.3001 72.6803 95.6878 65.2583 104.135 63.6558V53.3523H106.275V63.658C97.8275 65.2605 91.4398 72.6825 91.4398 81.5964C91.4398 91.3149 99.0325 99.2599 108.61 99.8233C108.262 99.8431 107.912 99.8531 107.559 99.8531ZM107.682 46.5052H69.4722V46.503H107.559C107.6 46.503 107.641 46.5037 107.682 46.5052ZM64.998 0.031947C64.6377 0.0107486 64.2746 0 63.9089 0C53.8248 0 45.6501 8.17477 45.6501 18.2588C45.6501 27.1728 52.0377 34.5948 60.4854 36.1973V46.503H20.2588C18.3681 46.503 16.8353 48.0358 16.8353 49.9265V63.6558C8.38765 65.2583 2 72.6803 2 81.5942C2 91.6783 10.1748 99.8531 20.2588 99.8531C20.6115 99.8531 20.9618 99.8431 21.3095 99.8233C11.7324 99.2599 4.13974 91.3149 4.13974 81.5964C4.13974 72.6825 10.5274 65.2605 18.9751 63.658V49.9288C18.9751 48.038 20.5078 46.5052 22.3986 46.5052H62.6251V36.1995C54.1774 34.597 47.7898 27.175 47.7898 18.2611C47.7898 8.52962 55.4028 0.576281 64.998 0.031947ZM60.4854 53.3523V63.6558C52.0377 65.2583 45.6501 72.6803 45.6501 81.5942C45.6501 91.6783 53.8248 99.8531 63.9089 99.8531C64.2615 99.8531 64.6118 99.8431 64.9595 99.8233C55.3825 99.2599 47.7898 91.3149 47.7898 81.5964C47.7898 72.6825 54.1774 65.2605 62.6251 63.658V53.3523H60.4854Z" fill="#F2CCFF"/>
<g filter="url(#filter0_d_652_3151)">
<path d="M64.3388 15.4866C66.6056 15.4866 68.4432 13.649 68.4432 11.3822C68.4432 9.11544 66.6056 7.27783 64.3388 7.27783C62.072 7.27783 60.2344 9.11544 60.2344 11.3822C60.2344 13.649 62.072 15.4866 64.3388 15.4866Z" fill="#FFDB77"/>
<path d="M68.9707 19.6321H59.7043C59.1902 19.6321 58.7429 19.9843 58.6225 20.4842L57.094 26.8245C56.9252 27.5246 57.4558 28.1982 58.1759 28.1982H70.4991C71.2192 28.1982 71.7498 27.5246 71.581 26.8245L70.0526 20.4842C69.9321 19.9843 69.4848 19.6321 68.9707 19.6321Z" fill="#21A365"/>
</g>
<g filter="url(#filter1_d_652_3151)">
<path d="M64.3388 77.9653C66.6056 77.9653 68.4432 76.1277 68.4432 73.8609C68.4432 71.5941 66.6056 69.7565 64.3388 69.7565C62.072 69.7565 60.2344 71.5941 60.2344 73.8609C60.2344 76.1277 62.072 77.9653 64.3388 77.9653Z" fill="#FFDB77"/>
<path d="M68.9707 82.1107H59.7043C59.1902 82.1107 58.7429 82.463 58.6225 82.9628L57.094 89.3032C56.9252 90.0032 57.4558 90.6768 58.1759 90.6768H70.4991C71.2192 90.6768 71.7498 90.0032 71.581 89.3032L70.0526 82.9628C69.9321 82.463 69.4848 82.1107 68.9707 82.1107Z" fill="#83ACFF"/>
<path d="M20.6903 77.9653C22.9571 77.9653 24.7948 76.1277 24.7948 73.8609C24.7948 71.5941 22.9571 69.7565 20.6903 69.7565C18.4235 69.7565 16.5859 71.5941 16.5859 73.8609C16.5859 76.1277 18.4235 77.9653 20.6903 77.9653Z" fill="#FFDB77"/>
<path d="M25.3222 82.1107H16.0559C15.5417 82.1107 15.0945 82.463 14.974 82.9628L13.4456 89.3032C13.2768 90.0032 13.8073 90.6768 14.5275 90.6768H26.8507C27.5708 90.6768 28.1014 90.0032 27.9326 89.3032L26.4041 82.9628C26.2836 82.463 25.8364 82.1107 25.3222 82.1107Z" fill="#83ACFF"/>
<g filter="url(#filter2_d_652_3151)">
<path d="M107.991 77.9653C110.258 77.9653 112.096 76.1277 112.096 73.8609C112.096 71.5941 110.258 69.7565 107.991 69.7565C105.724 69.7565 103.887 71.5941 103.887 73.8609C103.887 76.1277 105.724 77.9653 107.991 77.9653Z" fill="#FFDB77"/>
<path d="M112.623 82.1107H103.357C102.843 82.1107 102.395 82.463 102.275 82.9628L100.746 89.3032C100.578 90.0032 101.108 90.6768 101.828 90.6768H114.151C114.872 90.6768 115.402 90.0032 115.233 89.3032L113.705 82.9628C113.584 82.463 113.137 82.1107 112.623 82.1107Z" fill="#83ACFF"/>
</g>
</g>
<defs>
<filter id="filter0_d_652_3151" x="56.0625" y="7.27783" width="16.5508" height="23.9204" filterUnits="userSpaceOnUse" color-interpolation-filters="sRGB">
<feFlood flood-opacity="0" result="BackgroundImageFix"/>
<feColorMatrix in="SourceAlpha" type="matrix" values="0 0 0 0 0 0 0 0 0 0 0 0 0 0 0 0 0 0 127 0" result="hardAlpha"/>
<feOffset dy="2"/>
<feGaussianBlur stdDeviation="0.5"/>
<feComposite in2="hardAlpha" operator="out"/>
<feColorMatrix type="matrix" values="0 0 0 0 0 0 0 0 0 0 0 0 0 0 0 0 0 0 0.25 0"/>
<feBlend mode="normal" in2="BackgroundImageFix" result="effect1_dropShadow_652_3151"/>
<feBlend mode="normal" in="SourceGraphic" in2="effect1_dropShadow_652_3151" result="shape"/>
</filter>
<filter id="filter1_d_652_3151" x="12.4141" y="69.7565" width="103.852" height="23.9204" filterUnits="userSpaceOnUse" color-interpolation-filters="sRGB">
<feFlood flood-opacity="0" result="BackgroundImageFix"/>
<feColorMatrix in="SourceAlpha" type="matrix" values="0 0 0 0 0 0 0 0 0 0 0 0 0 0 0 0 0 0 127 0" result="hardAlpha"/>
<feOffset dy="2"/>
<feGaussianBlur stdDeviation="0.5"/>
<feComposite in2="hardAlpha" operator="out"/>
<feColorMatrix type="matrix" values="0 0 0 0 0 0 0 0 0 0 0 0 0 0 0 0 0 0 0.25 0"/>
<feBlend mode="normal" in2="BackgroundImageFix" result="effect1_dropShadow_652_3151"/>
<feBlend mode="normal" in="SourceGraphic" in2="effect1_dropShadow_652_3151" result="shape"/>
</filter>
<filter id="filter2_d_652_3151" x="99.7148" y="69.7565" width="16.5508" height="23.9204" filterUnits="userSpaceOnUse" color-interpolation-filters="sRGB">
<feFlood flood-opacity="0" result="BackgroundImageFix"/>
<feColorMatrix in="SourceAlpha" type="matrix" values="0 0 0 0 0 0 0 0 0 0 0 0 0 0 0 0 0 0 127 0" result="hardAlpha"/>
<feOffset dy="2"/>
<feGaussianBlur stdDeviation="0.5"/>
<feComposite in2="hardAlpha" operator="out"/>
<feColorMatrix type="matrix" values="0 0 0 0 0 0 0 0 0 0 0 0 0 0 0 0 0 0 0.25 0"/>
<feBlend mode="normal" in2="BackgroundImageFix" result="effect1_dropShadow_652_3151"/>
<feBlend mode="normal" in="SourceGraphic" in2="effect1_dropShadow_652_3151" result="shape"/>
</filter>
</defs>
</svg>
