<svg width="416" height="217" viewBox="0 0 416 217" fill="none" xmlns="http://www.w3.org/2000/svg">
<g filter="url(#filter0_i_353_19607)">
<rect width="416" height="216.189" rx="10" fill="#E4EAF6"/>
</g>
<g filter="url(#filter1_d_353_19607)">
<path fill-rule="evenodd" clip-rule="evenodd" d="M214.074 127.444V119.736L209.79 119.619V108.873L214.074 103.617V96.6109L179.805 117.167V131.881V137.254V142.627V148L214.074 127.444Z" fill="#1DD4FB"/>
<path d="M243.187 79.853L243.165 79.8664L214.074 96.6109V103.617L209.79 108.873V119.619L214.074 119.736V127.444L243.187 110.687V79.853Z" fill="white"/>
<path fill-rule="evenodd" clip-rule="evenodd" d="M179.805 131.881L179.805 117.193L160 105.313V120.001V125.374V130.747V136.12L179.805 148V142.627V137.254V131.881Z" fill="#1DD4FB"/>
<path d="M214.074 96.6109L243.165 79.8664L223.382 68L194.269 84.7444L214.074 96.6109Z" fill="white"/>
<path d="M179.805 117.167L214.074 96.6109L194.269 84.7444L160 105.313L179.805 117.193L179.805 117.167Z" fill="#1DD4FB"/>
<path fill-rule="evenodd" clip-rule="evenodd" d="M227.409 120.079C225.031 118.868 223.546 116.058 223.546 111.99C223.546 104.167 229.038 94.654 235.813 90.7425C239.201 88.7867 242.268 88.6015 244.488 89.8832L240.983 87.8596C238.763 86.5779 235.696 86.7631 232.308 88.7189C225.533 92.6305 220.041 102.143 220.041 109.966C220.041 114.034 221.526 116.845 223.904 118.055L227.409 120.079Z" fill="white"/>
<path d="M248.08 97.8248C248.08 105.648 242.588 115.161 235.813 119.072C229.038 122.984 223.546 119.813 223.546 111.99C223.546 104.167 229.038 94.6539 235.813 90.7423C242.588 86.8308 248.08 90.0017 248.08 97.8248Z" fill="white"/>
<path fill-rule="evenodd" clip-rule="evenodd" d="M233.647 123.517C231.441 122.252 230.077 119.528 230.077 115.648C230.077 107.905 235.513 98.4885 242.219 94.6167C245.573 92.6808 248.608 92.4975 250.806 93.7661L244.178 89.94C241.981 88.6713 238.945 88.8546 235.592 90.7905C228.886 94.6623 223.45 104.078 223.45 111.822C223.45 115.702 224.814 118.425 227.019 119.691L233.647 123.517Z" fill="#1DD4FB"/>
<path d="M254.362 101.627C254.362 109.371 248.925 118.787 242.219 122.659C235.513 126.531 230.077 123.392 230.077 115.648C230.077 107.905 235.513 98.4884 242.219 94.6167C248.925 90.7448 254.362 93.8836 254.362 101.627Z" fill="#1DD4FB"/>
<path fill-rule="evenodd" clip-rule="evenodd" d="M240.845 115.422V120.656C240.845 121.799 241.247 122.606 241.896 122.982L239.596 121.654C238.946 121.278 238.544 120.471 238.544 119.328V115.77L240.845 115.422Z" fill="#1DD4FB"/>
<path fill-rule="evenodd" clip-rule="evenodd" d="M255.14 100.122C254.492 99.7461 253.596 99.7991 252.606 100.371L247.999 103.031L245.699 101.702L250.306 99.0425C251.296 98.4711 252.192 98.418 252.839 98.7942L255.14 100.122Z" fill="#1DD4FB"/>
<path fill-rule="evenodd" clip-rule="evenodd" d="M246.947 95.4705C246.3 95.0951 245.408 95.146 244.422 95.7152C242.446 96.8558 240.845 99.6461 240.845 101.927V107.161L236.312 109.778C234.336 110.919 232.721 113.701 232.721 115.982C232.721 117.118 233.121 117.916 233.768 118.289L231.467 116.961C230.821 116.588 230.42 115.79 230.42 114.654C230.42 112.373 232.036 109.591 234.012 108.45L238.544 105.833V100.599C238.544 98.3181 240.146 95.5277 242.122 94.3871C243.107 93.8179 244 93.7671 244.647 94.1424L246.947 95.4705Z" fill="#1DD4FB"/>
<path fill-rule="evenodd" clip-rule="evenodd" d="M244.422 95.7152C242.446 96.8559 240.845 99.6462 240.845 101.927V107.161L236.312 109.778C234.336 110.919 232.721 113.701 232.721 115.982C232.721 118.264 234.336 119.18 236.312 118.039L240.845 115.422V120.656C240.845 122.938 242.446 123.878 244.422 122.738C246.398 121.597 247.999 118.807 247.999 116.526V111.292L252.606 108.632C254.582 107.491 256.183 104.717 256.183 102.436C256.183 100.155 254.582 99.2301 252.606 100.371L247.999 103.031V97.7969C247.999 95.5156 246.398 94.5746 244.422 95.7152ZM249.283 106.4C249.283 104.385 250.698 101.92 252.443 100.912C254.189 99.9041 255.604 100.735 255.604 102.751V102.791C255.604 104.806 254.189 107.271 252.443 108.279C250.698 109.287 249.283 108.456 249.283 106.44V106.4ZM244.392 103.828C246.138 102.82 247.553 100.384 247.553 98.3684C247.553 96.3529 246.138 95.5215 244.392 96.5292C242.647 97.537 241.232 100.002 241.232 102.018C241.232 104.033 242.647 104.836 244.392 103.828ZM233.411 115.564C233.411 113.548 234.826 111.083 236.571 110.075C238.317 109.068 239.732 109.899 239.732 111.915V111.954C239.732 113.97 238.317 116.435 236.571 117.443C234.826 118.451 233.411 117.619 233.411 115.604V115.564ZM244.392 114.659C246.138 113.652 247.553 114.454 247.553 116.47C247.553 118.485 246.138 120.951 244.392 121.958C242.647 122.966 241.232 122.135 241.232 120.119C241.232 118.104 242.647 115.667 244.392 114.659Z" fill="#1DD4FB"/>
<path d="M244.392 103.828C246.138 102.82 247.553 100.384 247.553 98.3684C247.553 96.3529 246.138 95.5215 244.392 96.5292C242.647 97.537 241.232 100.002 241.232 102.018C241.232 104.033 242.647 104.836 244.392 103.828Z" fill="black"/>
<path d="M233.411 115.564C233.411 113.548 234.826 111.083 236.571 110.075C238.317 109.068 239.732 109.899 239.732 111.915V111.954C239.732 113.97 238.317 116.435 236.571 117.443C234.826 118.451 233.411 117.619 233.411 115.604V115.564Z" fill="black"/>
<path d="M244.392 114.659C246.138 113.652 247.553 114.454 247.553 116.47C247.553 118.485 246.138 120.951 244.392 121.958C242.647 122.966 241.232 122.135 241.232 120.119C241.232 118.104 242.647 115.667 244.392 114.659Z" fill="black"/>
<path d="M249.283 106.4C249.283 104.385 250.698 101.92 252.443 100.912C254.189 99.9041 255.604 100.735 255.604 102.751V102.791C255.604 104.806 254.189 107.271 252.443 108.279C250.698 109.287 249.283 108.456 249.283 106.44V106.4Z" fill="black"/>
</g>
<defs>
<filter id="filter0_i_353_19607" x="0" y="0" width="416" height="220.189" filterUnits="userSpaceOnUse" color-interpolation-filters="sRGB">
<feFlood flood-opacity="0" result="BackgroundImageFix"/>
<feBlend mode="normal" in="SourceGraphic" in2="BackgroundImageFix" result="shape"/>
<feColorMatrix in="SourceAlpha" type="matrix" values="0 0 0 0 0 0 0 0 0 0 0 0 0 0 0 0 0 0 127 0" result="hardAlpha"/>
<feOffset dy="4"/>
<feGaussianBlur stdDeviation="2"/>
<feComposite in2="hardAlpha" operator="arithmetic" k2="-1" k3="1"/>
<feColorMatrix type="matrix" values="0 0 0 0 0 0 0 0 0 0 0 0 0 0 0 0 0 0 0.25 0"/>
<feBlend mode="normal" in2="shape" result="effect1_innerShadow_353_19607"/>
</filter>
<filter id="filter1_d_353_19607" x="157" y="65" width="102.184" height="86" filterUnits="userSpaceOnUse" color-interpolation-filters="sRGB">
<feFlood flood-opacity="0" result="BackgroundImageFix"/>
<feColorMatrix in="SourceAlpha" type="matrix" values="0 0 0 0 0 0 0 0 0 0 0 0 0 0 0 0 0 0 127 0" result="hardAlpha"/>
<feOffset/>
<feGaussianBlur stdDeviation="1.5"/>
<feComposite in2="hardAlpha" operator="out"/>
<feColorMatrix type="matrix" values="0 0 0 0 0 0 0 0 0 0 0 0 0 0 0 0 0 0 0.25 0"/>
<feBlend mode="normal" in2="BackgroundImageFix" result="effect1_dropShadow_353_19607"/>
<feBlend mode="normal" in="SourceGraphic" in2="effect1_dropShadow_353_19607" result="shape"/>
</filter>
</defs>
</svg>
