<svg width="145" height="108" viewBox="0 0 145 108" fill="none" xmlns="http://www.w3.org/2000/svg">
<g filter="url(#filter0_d_652_3801)">
<path d="M129.214 0H15.2535C9.04848 0 4 5.04848 4 11.2535V88.7465C4 94.9518 9.04848 100 15.2535 100H129.213C135.419 100 140.467 94.9515 140.467 88.7465V11.2535C140.467 5.04848 135.419 0 129.214 0ZM136.194 88.7465C136.194 92.5953 133.062 95.7266 129.214 95.7266H15.2535C11.4047 95.7266 8.27339 92.5953 8.27339 88.7465V11.2535C8.27339 7.40467 11.4047 4.27339 15.2535 4.27339H129.213C133.062 4.27339 136.193 7.40467 136.193 11.2535L136.194 88.7465Z" fill="#F5F5F5"/>
<path d="M136.194 88.7465C136.194 92.5953 133.062 95.7266 129.214 95.7266H15.2535C11.4047 95.7266 8.27339 92.5953 8.27339 88.7465V11.2535C8.27339 7.40467 11.4047 4.27339 15.2535 4.27339H129.213C133.062 4.27339 136.193 7.40467 136.193 11.2535L136.194 88.7465Z" fill="#F5F5F5"/>
</g>
<g filter="url(#filter1_d_652_3801)">
<path d="M108.569 38.0801C113.899 38.0801 118.22 33.7592 118.22 28.4291C118.22 23.099 113.899 18.7781 108.569 18.7781C103.239 18.7781 98.918 23.099 98.918 28.4291C98.918 33.7592 103.239 38.0801 108.569 38.0801Z" fill="#FFDB77"/>
<path d="M119.462 47.8333H97.6729C96.4639 47.8333 95.4123 48.6616 95.129 49.8369L91.535 64.7454C91.1382 66.3916 92.3857 67.9755 94.0789 67.9755H123.056C124.749 67.9755 125.996 66.3916 125.599 64.7454L122.006 49.8369C121.722 48.6616 120.671 47.8333 119.462 47.8333Z" fill="#13829B"/>
</g>
<g filter="url(#filter2_i_652_3801)">
<path d="M126.984 77.7214H17.5821C16.4022 77.7214 15.4453 78.678 15.4453 79.8583C15.4453 81.0382 16.4019 81.9951 17.5821 81.9951H126.984C128.164 81.9951 129.121 81.0385 129.121 79.8583C129.121 78.678 128.164 77.7214 126.984 77.7214Z" fill="#D9D9D9"/>
<path d="M78.1072 62.6648H16.6458C15.9829 62.6648 15.4453 63.6214 15.4453 64.8016C15.4453 65.9816 15.9827 66.9385 16.6458 66.9385H78.107C78.7699 66.9385 79.3075 65.9819 79.3075 64.8016C79.3075 63.6214 78.7701 62.6648 78.1072 62.6648Z" fill="#D9D9D9"/>
<path d="M78.1072 47.5999H16.6458C15.9829 47.5999 15.4453 48.5565 15.4453 49.7367C15.4453 50.9166 15.9827 51.8735 16.6458 51.8735H78.107C78.7699 51.8735 79.3075 50.9169 79.3075 49.7367C79.3075 48.5565 78.7701 47.5999 78.1072 47.5999Z" fill="#D9D9D9"/>
<path d="M78.1072 32.543H16.6458C15.9829 32.543 15.4453 33.4996 15.4453 34.6798C15.4453 35.8598 15.9827 36.8166 16.6458 36.8166H78.107C78.7699 36.8166 79.3075 35.86 79.3075 34.6798C79.3075 33.4996 78.7701 32.543 78.1072 32.543Z" fill="#D9D9D9"/>
<path d="M78.1072 17.4778H16.6458C15.9829 17.4778 15.4453 18.4344 15.4453 19.6146C15.4453 20.7946 15.9827 21.7514 16.6458 21.7514H78.107C78.7699 21.7514 79.3075 20.7948 79.3075 19.6146C79.3075 18.4344 78.7701 17.4778 78.1072 17.4778Z" fill="#D9D9D9"/>
</g>
<defs>
<filter id="filter0_d_652_3801" x="0" y="0" width="144.469" height="108" filterUnits="userSpaceOnUse" color-interpolation-filters="sRGB">
<feFlood flood-opacity="0" result="BackgroundImageFix"/>
<feColorMatrix in="SourceAlpha" type="matrix" values="0 0 0 0 0 0 0 0 0 0 0 0 0 0 0 0 0 0 127 0" result="hardAlpha"/>
<feOffset dy="4"/>
<feGaussianBlur stdDeviation="2"/>
<feComposite in2="hardAlpha" operator="out"/>
<feColorMatrix type="matrix" values="0 0 0 0 0 0 0 0 0 0 0 0 0 0 0 0 0 0 0.25 0"/>
<feBlend mode="normal" in2="BackgroundImageFix" result="effect1_dropShadow_652_3801"/>
<feBlend mode="normal" in="SourceGraphic" in2="effect1_dropShadow_652_3801" result="shape"/>
</filter>
<filter id="filter1_d_652_3801" x="87.4609" y="18.7781" width="42.2109" height="57.1975" filterUnits="userSpaceOnUse" color-interpolation-filters="sRGB">
<feFlood flood-opacity="0" result="BackgroundImageFix"/>
<feColorMatrix in="SourceAlpha" type="matrix" values="0 0 0 0 0 0 0 0 0 0 0 0 0 0 0 0 0 0 127 0" result="hardAlpha"/>
<feOffset dy="4"/>
<feGaussianBlur stdDeviation="2"/>
<feComposite in2="hardAlpha" operator="out"/>
<feColorMatrix type="matrix" values="0 0 0 0 0 0 0 0 0 0 0 0 0 0 0 0 0 0 0.25 0"/>
<feBlend mode="normal" in2="BackgroundImageFix" result="effect1_dropShadow_652_3801"/>
<feBlend mode="normal" in="SourceGraphic" in2="effect1_dropShadow_652_3801" result="shape"/>
</filter>
<filter id="filter2_i_652_3801" x="15.4453" y="17.4778" width="113.676" height="65.5173" filterUnits="userSpaceOnUse" color-interpolation-filters="sRGB">
<feFlood flood-opacity="0" result="BackgroundImageFix"/>
<feBlend mode="normal" in="SourceGraphic" in2="BackgroundImageFix" result="shape"/>
<feColorMatrix in="SourceAlpha" type="matrix" values="0 0 0 0 0 0 0 0 0 0 0 0 0 0 0 0 0 0 127 0" result="hardAlpha"/>
<feOffset dy="2"/>
<feGaussianBlur stdDeviation="0.5"/>
<feComposite in2="hardAlpha" operator="arithmetic" k2="-1" k3="1"/>
<feColorMatrix type="matrix" values="0 0 0 0 0 0 0 0 0 0 0 0 0 0 0 0 0 0 0.25 0"/>
<feBlend mode="normal" in2="shape" result="effect1_innerShadow_652_3801"/>
</filter>
</defs>
</svg>
