<svg width="416" height="217" viewBox="0 0 416 217" fill="none" xmlns="http://www.w3.org/2000/svg">
<g filter="url(#filter0_i_353_19671)">
<rect y="0.37793" width="416" height="216.189" rx="10" fill="#E4EAF6"/>
</g>
<g filter="url(#filter1_d_353_19671)">
<path fill-rule="evenodd" clip-rule="evenodd" d="M150.074 127.822V120.114L145.79 119.997V109.251L150.074 103.995V96.9888L115.805 117.544V132.259V137.632V143.005V148.378L150.074 127.822Z" fill="#1DD4FB"/>
<path d="M179.187 80.231L179.165 80.2444L150.074 96.9888V103.995L145.79 109.251V119.997L150.074 120.114V127.822L179.187 111.064V80.231Z" fill="white"/>
<path fill-rule="evenodd" clip-rule="evenodd" d="M115.805 132.259L115.805 117.571L96 105.691V120.379V125.752V131.125V136.498L115.805 148.378V143.005V137.632V132.259Z" fill="#1DD4FB"/>
<path d="M150.074 96.9888L179.165 80.2444L159.382 68.3779L130.269 85.1224L150.074 96.9888Z" fill="white"/>
<path d="M115.805 117.544L150.074 96.9888L130.269 85.1224L96 105.691L115.805 117.571L115.805 117.544Z" fill="#1DD4FB"/>
<path fill-rule="evenodd" clip-rule="evenodd" d="M163.409 120.456C161.031 119.246 159.546 116.436 159.546 112.368C159.546 104.545 165.038 95.032 171.813 91.1204C175.201 89.1646 178.268 88.9794 180.488 90.2611L176.983 88.2376C174.763 86.9559 171.696 87.141 168.308 89.0968C161.533 93.0084 156.041 102.521 156.041 110.344C156.041 114.412 157.526 117.222 159.904 118.433L163.409 120.456Z" fill="white"/>
<path d="M184.08 98.2028C184.08 106.026 178.588 115.539 171.813 119.45C165.038 123.362 159.546 120.191 159.546 112.368C159.546 104.545 165.038 95.0318 171.813 91.1203C178.588 87.2087 184.08 90.3796 184.08 98.2028Z" fill="white"/>
<path fill-rule="evenodd" clip-rule="evenodd" d="M169.647 123.895C167.441 122.629 166.077 119.906 166.077 116.026C166.077 108.283 171.513 98.8664 178.219 94.9946C181.573 93.0587 184.608 92.8754 186.806 94.1441L180.178 90.3179C177.981 89.0492 174.945 89.2325 171.592 91.1684C164.886 95.0402 159.45 104.456 159.45 112.2C159.45 116.08 160.814 118.803 163.019 120.069L169.647 123.895Z" fill="#1DD4FB"/>
<path d="M190.362 102.005C190.362 109.749 184.925 119.165 178.219 123.037C171.513 126.909 166.077 123.77 166.077 116.026C166.077 108.283 171.513 98.8664 178.219 94.9946C184.925 91.1228 190.362 94.2615 190.362 102.005Z" fill="#1DD4FB"/>
<path fill-rule="evenodd" clip-rule="evenodd" d="M176.845 115.8V121.034C176.845 122.177 177.247 122.984 177.896 123.36L175.596 122.032C174.946 121.655 174.544 120.849 174.544 119.706V116.148L176.845 115.8Z" fill="#1DD4FB"/>
<path fill-rule="evenodd" clip-rule="evenodd" d="M191.14 100.5C190.492 100.124 189.596 100.177 188.606 100.749L183.999 103.408L181.699 102.08L186.306 99.4204C187.296 98.849 188.192 98.7959 188.839 99.1721L191.14 100.5Z" fill="#1DD4FB"/>
<path fill-rule="evenodd" clip-rule="evenodd" d="M182.947 95.8484C182.3 95.4731 181.408 95.5239 180.422 96.0931C178.446 97.2337 176.845 100.024 176.845 102.305V107.539L172.312 110.156C170.336 111.297 168.721 114.079 168.721 116.36C168.721 117.496 169.121 118.294 169.768 118.667L167.467 117.339C166.821 116.966 166.42 116.168 166.42 115.032C166.42 112.751 168.036 109.969 170.012 108.828L174.544 106.211V100.977C174.544 98.696 176.146 95.9057 178.122 94.765C179.107 94.1959 180 94.145 180.647 94.5204L182.947 95.8484Z" fill="#1DD4FB"/>
<path fill-rule="evenodd" clip-rule="evenodd" d="M180.422 96.0932C178.446 97.2338 176.845 100.024 176.845 102.305V107.539L172.312 110.156C170.336 111.297 168.721 114.079 168.721 116.36C168.721 118.641 170.336 119.558 172.312 118.417L176.845 115.8V121.034C176.845 123.315 178.446 124.256 180.422 123.116C182.398 121.975 183.999 119.185 183.999 116.904V111.67L188.606 109.01C190.582 107.869 192.183 105.095 192.183 102.814C192.183 100.533 190.582 99.608 188.606 100.749L183.999 103.409V98.1748C183.999 95.8935 182.398 94.9525 180.422 96.0932ZM185.283 106.778C185.283 104.763 186.698 102.298 188.443 101.29C190.189 100.282 191.604 101.113 191.604 103.129V103.169C191.604 105.184 190.189 107.649 188.443 108.657C186.698 109.665 185.283 108.834 185.283 106.818V106.778ZM180.392 104.206C182.138 103.198 183.553 100.762 183.553 98.7463C183.553 96.7308 182.138 95.8994 180.392 96.9071C178.647 97.9149 177.232 100.38 177.232 102.396C177.232 104.411 178.647 105.214 180.392 104.206ZM169.411 115.942C169.411 113.926 170.826 111.461 172.571 110.453C174.317 109.446 175.732 110.277 175.732 112.293V112.332C175.732 114.348 174.317 116.813 172.571 117.821C170.826 118.829 169.411 117.997 169.411 115.982V115.942ZM180.392 115.037C182.138 114.03 183.553 114.832 183.553 116.848C183.553 118.863 182.138 121.328 180.392 122.336C178.647 123.344 177.232 122.513 177.232 120.497C177.232 118.482 178.647 116.045 180.392 115.037Z" fill="#1DD4FB"/>
<path d="M180.392 104.206C182.138 103.198 183.553 100.762 183.553 98.7463C183.553 96.7308 182.138 95.8994 180.392 96.9071C178.647 97.9149 177.232 100.38 177.232 102.396C177.232 104.411 178.647 105.214 180.392 104.206Z" fill="black"/>
<path d="M169.411 115.942C169.411 113.926 170.826 111.461 172.571 110.453C174.317 109.446 175.732 110.277 175.732 112.293V112.332C175.732 114.348 174.317 116.813 172.571 117.821C170.826 118.829 169.411 117.997 169.411 115.982V115.942Z" fill="black"/>
<path d="M180.392 115.037C182.138 114.03 183.553 114.832 183.553 116.848C183.553 118.863 182.138 121.328 180.392 122.336C178.647 123.344 177.232 122.513 177.232 120.497C177.232 118.482 178.647 116.045 180.392 115.037Z" fill="black"/>
<path d="M185.283 106.778C185.283 104.763 186.698 102.298 188.443 101.29C190.189 100.282 191.604 101.113 191.604 103.129V103.169C191.604 105.184 190.189 107.649 188.443 108.657C186.698 109.665 185.283 108.834 185.283 106.818V106.778Z" fill="black"/>
</g>
<g filter="url(#filter2_d_353_19671)">
<path fill-rule="evenodd" clip-rule="evenodd" d="M278.257 127.822V120.114L273.974 119.997V109.251L278.257 103.995V96.9888L243.989 117.544V132.259V137.632V143.005V148.378L278.257 127.822Z" fill="#1DD4FB"/>
<path d="M307.37 80.231L307.348 80.2444L278.257 96.9888V103.995L273.974 109.251V119.997L278.257 120.114V127.822L307.37 111.064V80.231Z" fill="white"/>
<path fill-rule="evenodd" clip-rule="evenodd" d="M243.989 132.259L243.989 117.571L224.184 105.691V120.379V125.752V131.125V136.498L243.989 148.378V143.005V137.632V132.259Z" fill="#1DD4FB"/>
<path d="M278.257 96.9888L307.348 80.2444L287.565 68.3779L258.452 85.1224L278.257 96.9888Z" fill="white"/>
<path d="M243.989 117.544L278.257 96.9888L258.452 85.1224L224.184 105.691L243.989 117.571L243.989 117.544Z" fill="#1DD4FB"/>
<path fill-rule="evenodd" clip-rule="evenodd" d="M291.593 120.456C289.215 119.246 287.73 116.436 287.73 112.368C287.73 104.545 293.222 95.032 299.997 91.1204C303.384 89.1646 306.451 88.9794 308.671 90.2611L305.166 88.2376C302.946 86.9559 299.879 87.141 296.492 89.0968C289.717 93.0084 284.225 102.521 284.225 110.344C284.225 114.412 285.71 117.222 288.088 118.433L291.593 120.456Z" fill="white"/>
<path d="M312.264 98.2028C312.264 106.026 306.772 115.539 299.997 119.45C293.222 123.362 287.729 120.191 287.729 112.368C287.729 104.545 293.222 95.0318 299.997 91.1203C306.772 87.2087 312.264 90.3796 312.264 98.2028Z" fill="white"/>
<path fill-rule="evenodd" clip-rule="evenodd" d="M297.83 123.895C295.625 122.629 294.26 119.906 294.26 116.026C294.26 108.283 299.697 98.8664 306.403 94.9946C309.756 93.0587 312.792 92.8754 314.989 94.1441L308.362 90.3179C306.165 89.0492 303.129 89.2325 299.776 91.1684C293.07 95.0402 287.633 104.456 287.633 112.2C287.633 116.08 288.998 118.803 291.203 120.069L297.83 123.895Z" fill="#1DD4FB"/>
<path d="M318.545 102.005C318.545 109.749 313.109 119.165 306.403 123.037C299.697 126.909 294.26 123.77 294.26 116.026C294.26 108.283 299.697 98.8664 306.403 94.9946C313.109 91.1228 318.545 94.2615 318.545 102.005Z" fill="#1DD4FB"/>
<path fill-rule="evenodd" clip-rule="evenodd" d="M305.028 115.8V121.034C305.028 122.177 305.43 122.984 306.08 123.36L303.78 122.032C303.13 121.655 302.728 120.849 302.728 119.706V116.148L305.028 115.8Z" fill="#1DD4FB"/>
<path fill-rule="evenodd" clip-rule="evenodd" d="M319.323 100.5C318.675 100.124 317.78 100.177 316.79 100.749L312.183 103.408L309.882 102.08L314.489 99.4204C315.479 98.849 316.375 98.7959 317.023 99.1721L319.323 100.5Z" fill="#1DD4FB"/>
<path fill-rule="evenodd" clip-rule="evenodd" d="M311.131 95.8484C310.484 95.4731 309.591 95.5239 308.605 96.0931C306.63 97.2337 305.028 100.024 305.028 102.305V107.539L300.496 110.156C298.52 111.297 296.904 114.079 296.904 116.36C296.904 117.496 297.305 118.294 297.951 118.667L295.651 117.339C295.005 116.966 294.604 116.168 294.604 115.032C294.604 112.751 296.22 109.969 298.195 108.828L302.728 106.211V100.977C302.728 98.696 304.33 95.9057 306.305 94.765C307.291 94.1959 308.184 94.145 308.831 94.5204L311.131 95.8484Z" fill="#1DD4FB"/>
<path fill-rule="evenodd" clip-rule="evenodd" d="M308.605 96.0932C306.63 97.2338 305.028 100.024 305.028 102.305V107.539L300.496 110.156C298.52 111.297 296.904 114.079 296.904 116.36C296.904 118.641 298.52 119.558 300.496 118.417L305.028 115.8V121.034C305.028 123.315 306.63 124.256 308.605 123.116C310.581 121.975 312.183 119.185 312.183 116.904V111.67L316.79 109.01C318.765 107.869 320.367 105.095 320.367 102.814C320.367 100.533 318.765 99.608 316.79 100.749L312.183 103.409V98.1748C312.183 95.8935 310.581 94.9525 308.605 96.0932ZM313.466 106.778C313.466 104.763 314.881 102.298 316.627 101.29C318.372 100.282 319.787 101.113 319.787 103.129V103.169C319.787 105.184 318.372 107.649 316.627 108.657C314.881 109.665 313.466 108.834 313.466 106.818V106.778ZM308.576 104.206C310.321 103.198 311.736 100.762 311.736 98.7463C311.736 96.7308 310.321 95.8994 308.576 96.9071C306.83 97.9149 305.415 100.38 305.415 102.396C305.415 104.411 306.83 105.214 308.576 104.206ZM297.594 115.942C297.594 113.926 299.009 111.461 300.755 110.453C302.5 109.446 303.915 110.277 303.915 112.293V112.332C303.915 114.348 302.5 116.813 300.755 117.821C299.009 118.829 297.594 117.997 297.594 115.982V115.942ZM308.576 115.037C310.321 114.03 311.736 114.832 311.736 116.848C311.736 118.863 310.321 121.328 308.576 122.336C306.83 123.344 305.415 122.513 305.415 120.497C305.415 118.482 306.83 116.045 308.576 115.037Z" fill="#1DD4FB"/>
<path d="M308.576 104.206C310.321 103.198 311.736 100.762 311.736 98.7463C311.736 96.7308 310.321 95.8994 308.576 96.9071C306.83 97.9149 305.415 100.38 305.415 102.396C305.415 104.411 306.83 105.214 308.576 104.206Z" fill="black"/>
<path d="M297.594 115.942C297.594 113.926 299.009 111.461 300.755 110.453C302.5 109.446 303.915 110.277 303.915 112.293V112.332C303.915 114.348 302.5 116.813 300.755 117.821C299.009 118.829 297.594 117.997 297.594 115.982V115.942Z" fill="black"/>
<path d="M308.576 115.037C310.321 114.03 311.736 114.832 311.736 116.848C311.736 118.863 310.321 121.328 308.576 122.336C306.83 123.344 305.415 122.513 305.415 120.497C305.415 118.482 306.83 116.045 308.576 115.037Z" fill="black"/>
<path d="M313.466 106.778C313.466 104.763 314.881 102.298 316.627 101.29C318.372 100.282 319.787 101.113 319.787 103.129V103.169C319.787 105.184 318.372 107.649 316.627 108.657C314.881 109.665 313.466 108.834 313.466 106.818V106.778Z" fill="black"/>
</g>
<defs>
<filter id="filter0_i_353_19671" x="0" y="0.37793" width="416" height="220.189" filterUnits="userSpaceOnUse" color-interpolation-filters="sRGB">
<feFlood flood-opacity="0" result="BackgroundImageFix"/>
<feBlend mode="normal" in="SourceGraphic" in2="BackgroundImageFix" result="shape"/>
<feColorMatrix in="SourceAlpha" type="matrix" values="0 0 0 0 0 0 0 0 0 0 0 0 0 0 0 0 0 0 127 0" result="hardAlpha"/>
<feOffset dy="4"/>
<feGaussianBlur stdDeviation="2"/>
<feComposite in2="hardAlpha" operator="arithmetic" k2="-1" k3="1"/>
<feColorMatrix type="matrix" values="0 0 0 0 0 0 0 0 0 0 0 0 0 0 0 0 0 0 0.25 0"/>
<feBlend mode="normal" in2="shape" result="effect1_innerShadow_353_19671"/>
</filter>
<filter id="filter1_d_353_19671" x="93" y="65.3779" width="102.184" height="86" filterUnits="userSpaceOnUse" color-interpolation-filters="sRGB">
<feFlood flood-opacity="0" result="BackgroundImageFix"/>
<feColorMatrix in="SourceAlpha" type="matrix" values="0 0 0 0 0 0 0 0 0 0 0 0 0 0 0 0 0 0 127 0" result="hardAlpha"/>
<feOffset/>
<feGaussianBlur stdDeviation="1.5"/>
<feComposite in2="hardAlpha" operator="out"/>
<feColorMatrix type="matrix" values="0 0 0 0 0 0 0 0 0 0 0 0 0 0 0 0 0 0 0.25 0"/>
<feBlend mode="normal" in2="BackgroundImageFix" result="effect1_dropShadow_353_19671"/>
<feBlend mode="normal" in="SourceGraphic" in2="effect1_dropShadow_353_19671" result="shape"/>
</filter>
<filter id="filter2_d_353_19671" x="221.184" y="65.3779" width="102.184" height="86" filterUnits="userSpaceOnUse" color-interpolation-filters="sRGB">
<feFlood flood-opacity="0" result="BackgroundImageFix"/>
<feColorMatrix in="SourceAlpha" type="matrix" values="0 0 0 0 0 0 0 0 0 0 0 0 0 0 0 0 0 0 127 0" result="hardAlpha"/>
<feOffset/>
<feGaussianBlur stdDeviation="1.5"/>
<feComposite in2="hardAlpha" operator="out"/>
<feColorMatrix type="matrix" values="0 0 0 0 0 0 0 0 0 0 0 0 0 0 0 0 0 0 0.25 0"/>
<feBlend mode="normal" in2="BackgroundImageFix" result="effect1_dropShadow_353_19671"/>
<feBlend mode="normal" in="SourceGraphic" in2="effect1_dropShadow_353_19671" result="shape"/>
</filter>
</defs>
</svg>
