<svg width="161" height="158" viewBox="0 0 161 158" fill="none" xmlns="http://www.w3.org/2000/svg">
<g filter="url(#filter0_d_1_638)">
<rect x="4" y="0.267578" width="149" height="149" rx="20" fill="white"/>
</g>
<g filter="url(#filter1_i_1_638)">
<circle cx="78.5" cy="73.7676" r="48.5" fill="#D9D9D9"/>
</g>
<g filter="url(#filter2_i_1_638)">
<path d="M121 73.7676C121 97.2397 101.972 116.268 78.5 116.268C66.764 116.268 56.1389 111.511 48.448 103.82C40.757 96.1286 36 85.5036 36 73.7676C36 50.2955 55.0279 31.2676 78.5 31.2676C90.236 31.2676 100.861 36.0246 108.552 43.7155C116.243 51.4065 121 62.0315 121 73.7676Z" fill="white"/>
</g>
<path d="M118.5 73.7676C118.5 95.859 100.591 113.768 78.5 113.768C67.4536 113.768 57.457 109.293 50.2157 102.052C42.9744 94.8105 38.5 84.814 38.5 73.7676C38.5 51.6762 56.4086 33.7676 78.5 33.7676C89.5464 33.7676 99.543 38.242 106.784 45.4833C114.026 52.7246 118.5 62.7212 118.5 73.7676Z" stroke="#FF0000" stroke-width="5"/>
<defs>
<filter id="filter0_d_1_638" x="0" y="0.267578" width="161" height="157" filterUnits="userSpaceOnUse" color-interpolation-filters="sRGB">
<feFlood flood-opacity="0" result="BackgroundImageFix"/>
<feColorMatrix in="SourceAlpha" type="matrix" values="0 0 0 0 0 0 0 0 0 0 0 0 0 0 0 0 0 0 127 0" result="hardAlpha"/>
<feOffset dy="4"/>
<feGaussianBlur stdDeviation="2"/>
<feComposite in2="hardAlpha" operator="out"/>
<feColorMatrix type="matrix" values="0 0 0 0 0 0 0 0 0 0 0 0 0 0 0 0 0 0 0.25 0"/>
<feBlend mode="normal" in2="BackgroundImageFix" result="effect1_dropShadow_1_638"/>
<feBlend mode="normal" in="SourceGraphic" in2="effect1_dropShadow_1_638" result="shape"/>
</filter>
<filter id="filter1_i_1_638" x="30" y="25.2676" width="97" height="101" filterUnits="userSpaceOnUse" color-interpolation-filters="sRGB">
<feFlood flood-opacity="0" result="BackgroundImageFix"/>
<feBlend mode="normal" in="SourceGraphic" in2="BackgroundImageFix" result="shape"/>
<feColorMatrix in="SourceAlpha" type="matrix" values="0 0 0 0 0 0 0 0 0 0 0 0 0 0 0 0 0 0 127 0" result="hardAlpha"/>
<feOffset dy="4"/>
<feGaussianBlur stdDeviation="2"/>
<feComposite in2="hardAlpha" operator="arithmetic" k2="-1" k3="1"/>
<feColorMatrix type="matrix" values="0 0 0 0 0 0 0 0 0 0 0 0 0 0 0 0 0 0 0.25 0"/>
<feBlend mode="normal" in2="shape" result="effect1_innerShadow_1_638"/>
</filter>
<filter id="filter2_i_1_638" x="36" y="31.2676" width="85" height="89" filterUnits="userSpaceOnUse" color-interpolation-filters="sRGB">
<feFlood flood-opacity="0" result="BackgroundImageFix"/>
<feBlend mode="normal" in="SourceGraphic" in2="BackgroundImageFix" result="shape"/>
<feColorMatrix in="SourceAlpha" type="matrix" values="0 0 0 0 0 0 0 0 0 0 0 0 0 0 0 0 0 0 127 0" result="hardAlpha"/>
<feOffset dy="4"/>
<feGaussianBlur stdDeviation="2"/>
<feComposite in2="hardAlpha" operator="arithmetic" k2="-1" k3="1"/>
<feColorMatrix type="matrix" values="0 0 0 0 0 0 0 0 0 0 0 0 0 0 0 0 0 0 0.25 0"/>
<feBlend mode="normal" in2="shape" result="effect1_innerShadow_1_638"/>
</filter>
</defs>
</svg>
