<svg width="355" height="260" viewBox="0 0 355 260" fill="none" xmlns="http://www.w3.org/2000/svg">
<ellipse cx="34.4541" cy="34.5024" rx="34.4541" ry="34.5024" fill="#FF00FF"/>
<ellipse cx="129.817" cy="34.5024" rx="34.4541" ry="34.5024" fill="#FF0000"/>
<ellipse cx="225.183" cy="34.5024" rx="34.4541" ry="34.5024" fill="#FF8000"/>
<ellipse cx="320.546" cy="34.5024" rx="34.4541" ry="34.5024" fill="#FFFF00"/>
<ellipse cx="34.4541" cy="130" rx="34.4541" ry="34.5024" fill="#80FF00"/>
<ellipse cx="129.817" cy="130" rx="34.4541" ry="34.5024" fill="#007FFF"/>
<ellipse cx="225.183" cy="130" rx="34.4541" ry="34.5024" fill="#0000FF"/>
<ellipse cx="320.546" cy="130" rx="34.4541" ry="34.5024" fill="#00FFEA"/>
<ellipse cx="34.4541" cy="225.498" rx="34.4541" ry="34.5024" fill="#8000FF"/>
<ellipse cx="129.817" cy="225.498" rx="34.4541" ry="34.5024" fill="black"/>
<ellipse cx="225.183" cy="225.498" rx="34.4541" ry="34.5024" fill="white"/>
<path d="M320.546 255.001C312.413 255.001 305.057 251.706 299.721 246.362C294.385 241.018 291.092 233.649 291.092 225.498C291.092 209.198 304.285 195.996 320.546 195.996C328.678 195.996 336.034 199.291 341.371 204.635C346.707 209.978 350 217.348 350 225.498C350 241.799 336.806 255.001 320.546 255.001Z" stroke="#FF0000" stroke-width="10"/>
</svg>
