<svg width="111" height="114" viewBox="0 0 111 114" fill="none" xmlns="http://www.w3.org/2000/svg">
<g filter="url(#filter0_d_652_3197)">
<path d="M55.6607 103C82.5353 103 104.321 80.6142 104.321 53C104.321 25.3858 82.5353 3 55.6607 3C28.7861 3 7 25.3858 7 53C7 80.6142 28.7861 103 55.6607 103Z" fill="#405CB0"/>
<path d="M55.6607 103C82.5353 103 104.321 80.6142 104.321 53C104.321 25.3858 82.5353 3 55.6607 3C28.7861 3 7 25.3858 7 53C7 80.6142 28.7861 103 55.6607 103Z" stroke="white" stroke-width="5"/>
</g>
<g filter="url(#filter1_d_652_3197)">
<path d="M60.8767 30.1444C60.8767 32.9059 58.6981 35.1444 56.0106 35.1444C53.3231 35.1444 51.1445 32.9059 51.1445 30.1444C51.1445 27.383 53.3231 25.1444 56.0106 25.1444C58.6981 25.1444 60.8767 27.383 60.8767 30.1444Z" fill="white"/>
<path d="M60.8767 30.1444C60.8767 32.9059 58.6981 35.1444 56.0106 35.1444C53.3231 35.1444 51.1445 32.9059 51.1445 30.1444C51.1445 27.383 53.3231 25.1444 56.0106 25.1444C58.6981 25.1444 60.8767 27.383 60.8767 30.1444Z" stroke="white" stroke-width="2.14286"/>
</g>
<g filter="url(#filter2_d_652_3197)">
<path d="M49.2578 45.9374H56.353H61.3305C61.3305 50.9384 58.4046 57.4989 58.4046 63.0654H52.5507C52.5507 57.0174 49.2578 51.2319 49.2578 45.9374Z" fill="#405CB0"/>
<path d="M50.5698 47.1874H56.353H60.0214C59.8437 49.1745 59.2899 51.4162 58.6886 53.8497C58.6771 53.8962 58.6656 53.9428 58.654 53.9895C58.0309 56.5119 57.3697 59.2209 57.1975 61.8154H53.7584C53.574 59.034 52.817 56.3486 52.1056 53.8735C52.0867 53.8078 52.0679 53.7423 52.0491 53.677C51.3745 51.3309 50.7618 49.2 50.5698 47.1874Z" stroke="white" stroke-width="2.5"/>
</g>
<g filter="url(#filter3_d_652_3197)">
<path d="M49.2596 45.9444C51.8206 45.9444 56.3548 45.9444 56.3548 45.9444C56.3548 45.9444 59.3883 45.9444 61.3323 45.9444M49.2596 45.9444C49.2596 51.2389 52.5525 57.0244 52.5525 63.0724L49.2596 45.9444ZM49.2596 45.9444C42.2585 42.8434 31.332 38.0034 31.332 38.0034L49.2596 45.9444ZM52.5525 63.0724C48.266 70.8559 41.5764 83.0034 41.5764 83.0034L52.5525 63.0724ZM52.5525 63.0724C54.8386 63.0724 56.1203 63.0724 58.4064 63.0724H52.5525ZM58.4064 63.0724C62.836 70.8559 69.7482 83.0034 69.7482 83.0034L58.4064 63.0724ZM58.4064 63.0724C58.4064 57.5059 61.3323 50.9454 61.3323 45.9444L58.4064 63.0724ZM61.3323 45.9444C68.6198 42.8434 79.9927 38.0034 79.9927 38.0034L61.3323 45.9444Z" fill="#405CB0"/>
<path d="M49.2596 45.9444H56.3548H61.3323C61.3323 50.9454 58.4064 57.5059 58.4064 63.0724H52.5525C52.5525 57.0244 49.2596 51.2389 49.2596 45.9444Z" fill="white"/>
<path d="M49.2596 45.9444C51.8206 45.9444 56.3548 45.9444 56.3548 45.9444M49.2596 45.9444C49.2596 51.2389 52.5525 57.0244 52.5525 63.0724M49.2596 45.9444C42.2585 42.8434 31.332 38.0034 31.332 38.0034M49.2596 45.9444H56.3548M56.3548 45.9444C56.3548 45.9444 59.3883 45.9444 61.3323 45.9444M56.3548 45.9444H61.3323M61.3323 45.9444C61.3323 50.9454 58.4064 57.5059 58.4064 63.0724M61.3323 45.9444C68.6198 42.8434 79.9927 38.0034 79.9927 38.0034M52.5525 63.0724C48.266 70.8559 41.5764 83.0034 41.5764 83.0034M52.5525 63.0724C54.8386 63.0724 56.1203 63.0724 58.4064 63.0724M52.5525 63.0724H58.4064M58.4064 63.0724C62.836 70.8559 69.7482 83.0034 69.7482 83.0034" stroke="white" stroke-width="4.5" stroke-linecap="round" stroke-linejoin="round"/>
</g>
<defs>
<filter id="filter0_d_652_3197" x="0.5" y="0.5" width="110.32" height="113" filterUnits="userSpaceOnUse" color-interpolation-filters="sRGB">
<feFlood flood-opacity="0" result="BackgroundImageFix"/>
<feColorMatrix in="SourceAlpha" type="matrix" values="0 0 0 0 0 0 0 0 0 0 0 0 0 0 0 0 0 0 127 0" result="hardAlpha"/>
<feOffset dy="4"/>
<feGaussianBlur stdDeviation="2"/>
<feComposite in2="hardAlpha" operator="out"/>
<feColorMatrix type="matrix" values="0 0 0 0 0 0 0 0 0 0 0 0 0 0 0 0 0 0 0.25 0"/>
<feBlend mode="normal" in2="BackgroundImageFix" result="effect1_dropShadow_652_3197"/>
<feBlend mode="normal" in="SourceGraphic" in2="effect1_dropShadow_652_3197" result="shape"/>
</filter>
<filter id="filter1_d_652_3197" x="46.0742" y="24.073" width="19.875" height="20.1428" filterUnits="userSpaceOnUse" color-interpolation-filters="sRGB">
<feFlood flood-opacity="0" result="BackgroundImageFix"/>
<feColorMatrix in="SourceAlpha" type="matrix" values="0 0 0 0 0 0 0 0 0 0 0 0 0 0 0 0 0 0 127 0" result="hardAlpha"/>
<feOffset dy="4"/>
<feGaussianBlur stdDeviation="2"/>
<feComposite in2="hardAlpha" operator="out"/>
<feColorMatrix type="matrix" values="0 0 0 0 0 0 0 0 0 0 0 0 0 0 0 0 0 0 0.25 0"/>
<feBlend mode="normal" in2="BackgroundImageFix" result="effect1_dropShadow_652_3197"/>
<feBlend mode="normal" in="SourceGraphic" in2="effect1_dropShadow_652_3197" result="shape"/>
</filter>
<filter id="filter2_d_652_3197" x="45.2578" y="45.9374" width="20.0742" height="25.1281" filterUnits="userSpaceOnUse" color-interpolation-filters="sRGB">
<feFlood flood-opacity="0" result="BackgroundImageFix"/>
<feColorMatrix in="SourceAlpha" type="matrix" values="0 0 0 0 0 0 0 0 0 0 0 0 0 0 0 0 0 0 127 0" result="hardAlpha"/>
<feOffset dy="4"/>
<feGaussianBlur stdDeviation="2"/>
<feComposite in2="hardAlpha" operator="out"/>
<feColorMatrix type="matrix" values="0 0 0 0 0 0 0 0 0 0 0 0 0 0 0 0 0 0 0.25 0"/>
<feBlend mode="normal" in2="BackgroundImageFix" result="effect1_dropShadow_652_3197"/>
<feBlend mode="normal" in="SourceGraphic" in2="effect1_dropShadow_652_3197" result="shape"/>
</filter>
<filter id="filter3_d_652_3197" x="25.082" y="35.7528" width="61.1602" height="57.501" filterUnits="userSpaceOnUse" color-interpolation-filters="sRGB">
<feFlood flood-opacity="0" result="BackgroundImageFix"/>
<feColorMatrix in="SourceAlpha" type="matrix" values="0 0 0 0 0 0 0 0 0 0 0 0 0 0 0 0 0 0 127 0" result="hardAlpha"/>
<feOffset dy="4"/>
<feGaussianBlur stdDeviation="2"/>
<feComposite in2="hardAlpha" operator="out"/>
<feColorMatrix type="matrix" values="0 0 0 0 0 0 0 0 0 0 0 0 0 0 0 0 0 0 0.25 0"/>
<feBlend mode="normal" in2="BackgroundImageFix" result="effect1_dropShadow_652_3197"/>
<feBlend mode="normal" in="SourceGraphic" in2="effect1_dropShadow_652_3197" result="shape"/>
</filter>
</defs>
</svg>
