<svg width="448" height="417" viewBox="0 0 448 417" fill="none" xmlns="http://www.w3.org/2000/svg">
<g filter="url(#filter0_d_353_19627)">
<path d="M16 408.134L120 0.134033H328L432 408.134H16Z" fill="#FAFAFA"/>
</g>
<g filter="url(#filter1_d_353_19627)">
<circle cx="224" cy="200.134" r="50" fill="#1DD4FB"/>
</g>
<g filter="url(#filter2_d_353_19627)">
<path fill-rule="evenodd" clip-rule="evenodd" d="M223.91 153.772C216.097 153.772 209.764 160.161 209.764 167.974V185.898H191.84C184.027 185.898 177.638 192.231 177.638 200.044C177.638 207.856 184.027 214.19 191.84 214.19H209.764V232.114C209.764 239.926 216.097 246.316 223.91 246.316C231.722 246.316 238.056 239.926 238.056 232.114V214.19H256.275C264.087 214.19 270.42 207.856 270.42 200.044C270.42 192.231 264.087 185.898 256.275 185.898H238.056V167.974C238.056 160.161 231.722 153.772 223.91 153.772ZM243.132 199.976C243.132 193.073 248.727 187.429 255.629 187.429C262.532 187.429 268.127 193.073 268.127 199.976V200.112C268.127 207.014 262.532 212.659 255.629 212.659C248.727 212.659 243.132 207.014 243.132 200.112V199.976ZM223.792 181.497C230.695 181.497 236.29 175.951 236.29 169.048C236.29 162.146 230.695 156.501 223.792 156.501C216.89 156.501 211.294 162.146 211.294 169.048C211.294 175.951 216.89 181.497 223.792 181.497ZM180.367 199.976C180.367 193.073 185.963 187.429 192.865 187.429C199.767 187.429 205.363 193.073 205.363 199.976V200.112C205.363 207.014 199.767 212.659 192.865 212.659C185.963 212.659 180.367 207.014 180.367 200.112V199.976ZM223.792 218.591C230.695 218.591 236.29 224.137 236.29 231.039C236.29 237.942 230.695 243.587 223.792 243.587C216.89 243.587 211.294 237.942 211.294 231.039C211.294 224.137 216.89 218.591 223.792 218.591Z" fill="#1DD4FB"/>
<path d="M236.29 169.048C236.29 175.951 230.695 181.497 223.792 181.497C216.89 181.497 211.294 175.951 211.294 169.048C211.294 162.146 216.89 156.501 223.792 156.501C230.695 156.501 236.29 162.146 236.29 169.048Z" fill="black"/>
<path d="M192.865 187.429C185.963 187.429 180.367 193.073 180.367 199.976V200.112C180.367 207.014 185.963 212.659 192.865 212.659C199.767 212.659 205.363 207.014 205.363 200.112V199.976C205.363 193.073 199.767 187.429 192.865 187.429Z" fill="black"/>
<path d="M236.29 231.039C236.29 224.137 230.695 218.591 223.792 218.591C216.89 218.591 211.294 224.137 211.294 231.039C211.294 237.942 216.89 243.587 223.792 243.587C230.695 243.587 236.29 237.942 236.29 231.039Z" fill="black"/>
<path d="M255.629 187.429C248.727 187.429 243.132 193.073 243.132 199.976V200.112C243.132 207.014 248.727 212.659 255.629 212.659C262.532 212.659 268.127 207.014 268.127 200.112V199.976C268.127 193.073 262.532 187.429 255.629 187.429Z" fill="black"/>
</g>
<rect y="0.134033" width="448" height="168" fill="url(#paint0_linear_353_19627)"/>
<defs>
<filter id="filter0_d_353_19627" x="12" y="0.134033" width="424" height="416" filterUnits="userSpaceOnUse" color-interpolation-filters="sRGB">
<feFlood flood-opacity="0" result="BackgroundImageFix"/>
<feColorMatrix in="SourceAlpha" type="matrix" values="0 0 0 0 0 0 0 0 0 0 0 0 0 0 0 0 0 0 127 0" result="hardAlpha"/>
<feOffset dy="4"/>
<feGaussianBlur stdDeviation="2"/>
<feComposite in2="hardAlpha" operator="out"/>
<feColorMatrix type="matrix" values="0 0 0 0 0 0 0 0 0 0 0 0 0 0 0 0 0 0 0.25 0"/>
<feBlend mode="normal" in2="BackgroundImageFix" result="effect1_dropShadow_353_19627"/>
<feBlend mode="normal" in="SourceGraphic" in2="effect1_dropShadow_353_19627" result="shape"/>
</filter>
<filter id="filter1_d_353_19627" x="170" y="150.134" width="108" height="108" filterUnits="userSpaceOnUse" color-interpolation-filters="sRGB">
<feFlood flood-opacity="0" result="BackgroundImageFix"/>
<feColorMatrix in="SourceAlpha" type="matrix" values="0 0 0 0 0 0 0 0 0 0 0 0 0 0 0 0 0 0 127 0" result="hardAlpha"/>
<feOffset dy="4"/>
<feGaussianBlur stdDeviation="2"/>
<feComposite in2="hardAlpha" operator="out"/>
<feColorMatrix type="matrix" values="0 0 0 0 0 0 0 0 0 0 0 0 0 0 0 0 0 0 0.25 0"/>
<feBlend mode="normal" in2="BackgroundImageFix" result="effect1_dropShadow_353_19627"/>
<feBlend mode="normal" in="SourceGraphic" in2="effect1_dropShadow_353_19627" result="shape"/>
</filter>
<filter id="filter2_d_353_19627" x="173.638" y="153.772" width="100.782" height="100.543" filterUnits="userSpaceOnUse" color-interpolation-filters="sRGB">
<feFlood flood-opacity="0" result="BackgroundImageFix"/>
<feColorMatrix in="SourceAlpha" type="matrix" values="0 0 0 0 0 0 0 0 0 0 0 0 0 0 0 0 0 0 127 0" result="hardAlpha"/>
<feOffset dy="4"/>
<feGaussianBlur stdDeviation="2"/>
<feComposite in2="hardAlpha" operator="out"/>
<feColorMatrix type="matrix" values="0 0 0 0 0 0 0 0 0 0 0 0 0 0 0 0 0 0 0.25 0"/>
<feBlend mode="normal" in2="BackgroundImageFix" result="effect1_dropShadow_353_19627"/>
<feBlend mode="normal" in="SourceGraphic" in2="effect1_dropShadow_353_19627" result="shape"/>
</filter>
<linearGradient id="paint0_linear_353_19627" x1="224" y1="0.134033" x2="224" y2="168.134" gradientUnits="userSpaceOnUse">
<stop stop-color="white"/>
<stop offset="1" stop-color="white" stop-opacity="0.14"/>
</linearGradient>
</defs>
</svg>
