<svg width="115" height="115" viewBox="0 0 115 115" fill="none" xmlns="http://www.w3.org/2000/svg">
<g filter="url(#filter0_d_0_450)">
<path d="M4 53.5C4 68.2736 9.98819 81.6486 19.6698 91.3302L57.5 53.5L19.6698 15.6698C9.98819 25.3514 4 38.7264 4 53.5Z" fill="white"/>
<path d="M111 53.5C111 38.7264 105.012 25.3514 95.3302 15.6698L57.5 53.5L95.3302 91.3302C105.012 81.6486 111 68.2736 111 53.5Z" fill="white"/>
<path d="M57.5 107C72.2736 107 85.6486 101.012 95.3302 91.3302L57.5 53.5L19.6698 91.3302C29.3514 101.012 42.7264 107 57.5 107Z" fill="white"/>
<path d="M95.3302 15.6698C85.6486 5.98819 72.2736 0 57.5 0C42.7264 0 29.3514 5.98819 19.6698 15.6698L57.5 53.5L95.3302 15.6698Z" fill="white"/>
</g>
<defs>
<filter id="filter0_d_0_450" x="0" y="0" width="115" height="115" filterUnits="userSpaceOnUse" color-interpolation-filters="sRGB">
<feFlood flood-opacity="0" result="BackgroundImageFix"/>
<feColorMatrix in="SourceAlpha" type="matrix" values="0 0 0 0 0 0 0 0 0 0 0 0 0 0 0 0 0 0 127 0" result="hardAlpha"/>
<feOffset dy="4"/>
<feGaussianBlur stdDeviation="2"/>
<feComposite in2="hardAlpha" operator="out"/>
<feColorMatrix type="matrix" values="0 0 0 0 0 0 0 0 0 0 0 0 0 0 0 0 0 0 0.25 0"/>
<feBlend mode="normal" in2="BackgroundImageFix" result="effect1_dropShadow_0_450"/>
<feBlend mode="normal" in="SourceGraphic" in2="effect1_dropShadow_0_450" result="shape"/>
</filter>
</defs>
</svg>
