<svg width="120" height="115" viewBox="0 0 120 115" fill="none" xmlns="http://www.w3.org/2000/svg">
<g filter="url(#filter0_i_0_776)">
<path d="M109.303 48.2818C103.396 48.2818 98.607 53.0707 98.607 58.9781C98.607 64.8855 103.396 69.6745 109.303 69.6745C115.211 69.6745 120 64.8855 120 58.9781C120 53.0707 115.211 48.2818 109.303 48.2818ZM97.1256 93.0126L95.5753 91.7403L97.1256 93.0126ZM66.1208 111.596L65.7296 109.629L65.7295 109.629L66.1208 111.596ZM25.8487 14.3707L26.963 16.0383L26.963 16.0383L25.8487 14.3707ZM93.5899 21.0426L83.9188 0.000455059L70.5313 18.897L93.5899 21.0426ZM107.298 58.9781C107.298 70.9261 103.155 82.5044 95.5753 91.7403L98.6759 94.2849C106.844 84.3317 111.309 71.8541 111.309 58.9781L107.298 58.9781ZM95.5753 91.7403C87.9956 100.976 77.4479 107.298 65.7296 109.629L66.5121 113.563C79.1406 111.051 90.5075 104.238 98.6759 94.2849L95.5753 91.7403ZM65.7295 109.629C54.0112 111.96 41.8471 110.156 31.31 104.523L29.4191 108.061C40.7747 114.131 53.8835 116.075 66.5121 113.563L65.7295 109.629ZM31.31 104.523C20.7728 98.8912 12.5145 89.7796 7.94224 78.7411L4.23645 80.2761C9.16385 92.172 18.0635 101.991 29.4191 108.061L31.31 104.523ZM7.94224 78.7411C3.36997 67.7027 2.76657 55.4203 6.23488 43.9868L2.39647 42.8225C-1.34122 55.144 -0.690969 68.3803 4.23645 80.2761L7.94224 78.7411ZM6.23488 43.9868C9.7032 32.5534 17.0286 22.6762 26.963 16.0383L24.7345 12.7031C14.0285 19.8566 6.13416 30.501 2.39647 42.8225L6.23488 43.9868ZM26.963 16.0383C36.8973 9.40034 48.826 6.41238 60.7164 7.58348L61.1096 3.59167C48.2956 2.3296 35.4405 5.54964 24.7345 12.7031L26.963 16.0383ZM60.7164 7.58348C66.7586 8.17859 72.6008 9.82892 77.9948 12.417L79.73 8.80059C73.9172 6.01155 67.621 4.23299 61.1096 3.59167L60.7164 7.58348Z" fill="#EAB4FE"/>
</g>
<defs>
<filter id="filter0_i_0_776" x="0" y="0" width="120" height="118.644" filterUnits="userSpaceOnUse" color-interpolation-filters="sRGB">
<feFlood flood-opacity="0" result="BackgroundImageFix"/>
<feBlend mode="normal" in="SourceGraphic" in2="BackgroundImageFix" result="shape"/>
<feColorMatrix in="SourceAlpha" type="matrix" values="0 0 0 0 0 0 0 0 0 0 0 0 0 0 0 0 0 0 127 0" result="hardAlpha"/>
<feOffset dy="4"/>
<feGaussianBlur stdDeviation="2"/>
<feComposite in2="hardAlpha" operator="arithmetic" k2="-1" k3="1"/>
<feColorMatrix type="matrix" values="0 0 0 0 0 0 0 0 0 0 0 0 0 0 0 0 0 0 0.25 0"/>
<feBlend mode="normal" in2="shape" result="effect1_innerShadow_0_776"/>
</filter>
</defs>
</svg>
