<svg width="120" height="115" viewBox="0 0 120 115" fill="none" xmlns="http://www.w3.org/2000/svg">
<g filter="url(#filter0_i_0_213)">
<path d="M109.304 48.2822C103.397 48.2822 98.6078 53.0711 98.6078 58.9786C98.6078 64.8861 103.397 69.675 109.304 69.675C115.212 69.675 120.001 64.8861 120.001 58.9786C120.001 53.0711 115.212 48.2822 109.304 48.2822ZM97.1264 93.0134L95.576 91.741L97.1264 93.0134ZM66.1214 111.597L65.7301 109.63L65.7301 109.63L66.1214 111.597ZM25.849 14.3708L26.9632 16.0384L26.9632 16.0384L25.849 14.3708ZM93.5907 21.0428L83.9194 0.000455063L70.5319 18.8972L93.5907 21.0428ZM107.299 58.9786C107.299 70.9267 103.156 82.5051 95.576 91.741L98.6767 94.2857C106.845 84.3324 111.31 71.8546 111.31 58.9786L107.299 58.9786ZM95.576 91.741C87.9963 100.977 77.4486 107.299 65.7301 109.63L66.5126 113.564C79.1413 111.052 90.5082 104.239 98.6767 94.2857L95.576 91.741ZM65.7301 109.63C54.0116 111.961 41.8474 110.157 31.3102 104.524L29.4194 108.062C40.775 114.132 53.884 116.076 66.5126 113.564L65.7301 109.63ZM31.3102 104.524C20.773 98.892 12.5146 89.7803 7.94231 78.7418L4.23648 80.2768C9.16393 92.1727 18.0637 101.992 29.4194 108.062L31.3102 104.524ZM7.94231 78.7418C3.37 67.7032 2.76659 55.4208 6.23493 43.9872L2.39649 42.8228C-1.34123 55.1444 -0.690975 68.3809 4.23648 80.2768L7.94231 78.7418ZM6.23493 43.9872C9.70327 32.5536 17.0288 22.6764 26.9632 16.0384L24.7347 12.7032C14.0287 19.8568 6.13421 30.5012 2.39649 42.8228L6.23493 43.9872ZM26.9632 16.0384C36.8976 9.40042 48.8264 6.41243 60.7169 7.58355L61.1101 3.5917C48.296 2.32962 35.4408 5.54968 24.7347 12.7032L26.9632 16.0384ZM60.7169 7.58355C66.7591 8.17865 72.6014 9.829 77.9955 12.4171L79.7307 8.80066C73.9178 6.0116 67.6216 4.23303 61.1101 3.5917L60.7169 7.58355Z" fill="#BA1DF1"/>
</g>
<defs>
<filter id="filter0_i_0_213" x="0" y="0" width="120" height="118.645" filterUnits="userSpaceOnUse" color-interpolation-filters="sRGB">
<feFlood flood-opacity="0" result="BackgroundImageFix"/>
<feBlend mode="normal" in="SourceGraphic" in2="BackgroundImageFix" result="shape"/>
<feColorMatrix in="SourceAlpha" type="matrix" values="0 0 0 0 0 0 0 0 0 0 0 0 0 0 0 0 0 0 127 0" result="hardAlpha"/>
<feOffset dy="4"/>
<feGaussianBlur stdDeviation="2"/>
<feComposite in2="hardAlpha" operator="arithmetic" k2="-1" k3="1"/>
<feColorMatrix type="matrix" values="0 0 0 0 0 0 0 0 0 0 0 0 0 0 0 0 0 0 0.25 0"/>
<feBlend mode="normal" in2="shape" result="effect1_innerShadow_0_213"/>
</filter>
</defs>
</svg>
