<svg width="107" height="107" viewBox="0 0 107 107" fill="none" xmlns="http://www.w3.org/2000/svg">
<path d="M0 53.5C0 68.2736 5.98819 81.6486 15.6698 91.3302L53.5 53.5L15.6698 15.6698C5.98819 25.3514 0 38.7264 0 53.5Z" fill="#B301F1"/>
<path d="M107 53.5C107 38.7264 101.012 25.3514 91.3302 15.6698L53.5 53.5L91.3302 91.3302C101.012 81.6486 107 68.2736 107 53.5Z" fill="#B301F1"/>
<path d="M53.5 107C68.2736 107 81.6486 101.012 91.3302 91.3302L53.5 53.5L15.6698 91.3302C25.3514 101.012 38.7264 107 53.5 107Z" fill="#B301F1"/>
<path d="M91.3302 15.6698C81.6486 5.98819 68.2736 0 53.5 0C38.7264 0 25.3514 5.98819 15.6698 15.6698L53.5 53.5L91.3302 15.6698Z" fill="#B301F1"/>
</svg>
