<svg width="27" height="100" viewBox="0 0 27 100" fill="none" xmlns="http://www.w3.org/2000/svg">
<g filter="url(#filter0_i_105_27652)">
<path d="M13.3774 26.7562C20.7658 26.7562 26.7552 20.7667 26.7552 13.3784C26.7552 5.99007 20.7658 0.000650659 13.3774 0.000650659C5.9891 0.000650659 -0.000326286 5.99007 -0.000326286 13.3784C-0.000326286 20.7667 5.9891 26.7562 13.3774 26.7562ZM13.3774 99.9993C20.7658 99.9993 26.7552 94.0099 26.7552 86.6216C26.7552 79.2333 20.7658 73.2438 13.3774 73.2438C5.9891 73.2438 -0.000326286 79.2333 -0.000326286 86.6216C-0.000326286 94.0099 5.9891 99.9993 13.3774 99.9993ZM10.8691 13.3784L10.8691 86.6216H15.8858L15.8858 13.3784H10.8691Z" fill="#EAB4FE"/>
</g>
<defs>
<filter id="filter0_i_105_27652" x="0" y="0" width="26.7549" height="104.013" filterUnits="userSpaceOnUse" color-interpolation-filters="sRGB">
<feFlood flood-opacity="0" result="BackgroundImageFix"/>
<feBlend mode="normal" in="SourceGraphic" in2="BackgroundImageFix" result="shape"/>
<feColorMatrix in="SourceAlpha" type="matrix" values="0 0 0 0 0 0 0 0 0 0 0 0 0 0 0 0 0 0 127 0" result="hardAlpha"/>
<feOffset dy="4"/>
<feGaussianBlur stdDeviation="2"/>
<feComposite in2="hardAlpha" operator="arithmetic" k2="-1" k3="1"/>
<feColorMatrix type="matrix" values="0 0 0 0 0 0 0 0 0 0 0 0 0 0 0 0 0 0 0.25 0"/>
<feBlend mode="normal" in2="shape" result="effect1_innerShadow_105_27652"/>
</filter>
</defs>
</svg>
