<svg width="464" height="258" viewBox="0 0 464 258" fill="none" xmlns="http://www.w3.org/2000/svg">
<g filter="url(#filter0_i_330_72755)">
<path d="M5 230.5L5 27.5H0L0 230.5H5ZM27.5 4.99998L436.5 4.99998V-1.52588e-05L27.5 -1.52588e-05V4.99998ZM459 27.5V230.5H464V27.5H459ZM436.5 253L232 253V258H436.5V253ZM232 253H27.5V258H232V253ZM459 230.5C459 242.926 448.926 253 436.5 253V258C451.688 258 464 245.688 464 230.5H459ZM436.5 4.99998C448.926 4.99998 459 15.0736 459 27.5H464C464 12.3121 451.688 -1.52588e-05 436.5 -1.52588e-05V4.99998ZM5 27.5C5 15.0736 15.0736 4.99998 27.5 4.99998V-1.52588e-05C12.3122 -1.52588e-05 0 12.3122 0 27.5H5ZM0 230.5C0 245.688 12.3122 258 27.5 258V253C15.0736 253 5 242.926 5 230.5H0Z" fill="#EAB4FE"/>
</g>
<defs>
<filter id="filter0_i_330_72755" x="0" y="0" width="464" height="262" filterUnits="userSpaceOnUse" color-interpolation-filters="sRGB">
<feFlood flood-opacity="0" result="BackgroundImageFix"/>
<feBlend mode="normal" in="SourceGraphic" in2="BackgroundImageFix" result="shape"/>
<feColorMatrix in="SourceAlpha" type="matrix" values="0 0 0 0 0 0 0 0 0 0 0 0 0 0 0 0 0 0 127 0" result="hardAlpha"/>
<feOffset dy="4"/>
<feGaussianBlur stdDeviation="2"/>
<feComposite in2="hardAlpha" operator="arithmetic" k2="-1" k3="1"/>
<feColorMatrix type="matrix" values="0 0 0 0 0 0 0 0 0 0 0 0 0 0 0 0 0 0 0.25 0"/>
<feBlend mode="normal" in2="shape" result="effect1_innerShadow_330_72755"/>
</filter>
</defs>
</svg>
