<svg width="153" height="66" viewBox="0 0 153 66" fill="none" xmlns="http://www.w3.org/2000/svg">
<g filter="url(#filter0_d_304_10481)">
<path fill-rule="evenodd" clip-rule="evenodd" d="M4.57129 53.043H148.57V57.0326H4.57129V53.043Z" fill="#F5F5F5"/>
</g>
<path fill-rule="evenodd" clip-rule="evenodd" d="M148.571 53.0424C148.571 23.8946 116.336 0.265625 76.5716 0.265625C36.8073 0.265625 4.57202 23.8946 4.57202 53.0424V57.032C4.57202 27.8842 36.8073 4.25526 76.5716 4.25526C116.336 4.25526 148.571 27.8842 148.571 57.032V53.0424Z" fill="#F5F5F5"/>
<path fill-rule="evenodd" clip-rule="evenodd" d="M148.571 53.0424C148.571 23.8946 116.336 0.265625 76.5716 0.265625C36.8073 0.265625 4.57202 23.8946 4.57202 53.0424H148.571Z" fill="#F5F5F5"/>
<path d="M35.707 26.0652V20.2051H37.3449V21.0847H37.6043C37.7557 20.847 38.0259 20.6251 38.4151 20.4191C38.8043 20.213 39.3827 20.11 40.1502 20.11C40.7556 20.11 41.2908 20.2091 41.7556 20.4072C42.2313 20.6053 42.6043 20.8866 42.8746 21.2511C43.1448 21.6077 43.28 22.0396 43.28 22.5468V26.0652H41.6097V22.6419C41.6097 22.1347 41.4367 21.7623 41.0908 21.5245C40.7449 21.2788 40.2691 21.156 39.6638 21.156C38.9719 21.156 38.4151 21.3224 37.9935 21.6553C37.5827 21.9881 37.3773 22.4715 37.3773 23.1054V26.0652H35.707ZM50.3216 26.2316C49.5108 26.2316 48.8026 26.1088 48.1973 25.8631C47.5918 25.6096 47.1162 25.2569 46.7703 24.8052C46.4351 24.3456 46.2675 23.8147 46.2675 23.2124V23.0698C46.2675 22.4596 46.4351 21.9287 46.7703 21.477C47.1053 21.0173 47.5702 20.6647 48.1648 20.4191C48.7702 20.1655 49.4675 20.0387 50.2567 20.0387C51.0243 20.0387 51.6945 20.1655 52.2675 20.4191C52.8513 20.6647 53.3053 21.0094 53.6297 21.4532C53.954 21.897 54.1161 22.416 54.1161 23.0104V23.4739H47.9702C47.9918 23.989 48.2243 24.4011 48.6675 24.7101C49.1216 25.0113 49.6837 25.1618 50.354 25.1618C50.981 25.1618 51.4513 25.0588 51.7648 24.8528C52.0891 24.6468 52.3378 24.409 52.5108 24.1396L53.8891 24.6626C53.7377 24.8845 53.5162 25.1182 53.2243 25.3639C52.9431 25.6096 52.5702 25.8156 52.1054 25.982C51.6405 26.1484 51.0459 26.2316 50.3216 26.2316ZM47.9865 22.5349H52.4135C52.3702 22.0911 52.154 21.7464 51.7648 21.5007C51.3756 21.2472 50.8675 21.1204 50.2405 21.1204C49.6135 21.1204 49.0999 21.2472 48.7 21.5007C48.3108 21.7464 48.0729 22.0911 47.9865 22.5349ZM55.896 26.0652L58.9446 23.1054L55.9608 20.2051H57.923L60.0149 22.309H60.2743L62.3662 20.2051H64.3446L61.3446 23.1054L64.3932 26.0652H62.3986L60.2743 23.9137H60.0149L57.8905 26.0652H55.896ZM70.1625 26.0652C69.676 26.0652 69.2868 25.9582 68.9949 25.7443C68.7138 25.5303 68.5733 25.245 68.5733 24.8884V21.2392H66.3679V20.2051H68.5733V18.2676H70.2435V20.2051H72.6273V21.2392H70.2435V24.6745C70.2435 24.9122 70.3949 25.0311 70.6976 25.0311H72.3678V26.0652H70.1625ZM83.9444 26.2316C82.9282 26.2316 82.0849 26.0652 81.4147 25.7324C80.7444 25.3996 80.3336 24.8964 80.1823 24.2228L81.739 23.9494C81.8255 24.2743 81.9714 24.5318 82.1768 24.722C82.3823 24.9122 82.6363 25.0469 82.939 25.1262C83.2525 25.2054 83.5876 25.245 83.9444 25.245C84.4742 25.245 84.8796 25.1698 85.1606 25.0192C85.4525 24.8686 85.5984 24.6745 85.5984 24.4367C85.5984 24.199 85.4633 24.0247 85.193 23.9137C84.9227 23.8028 84.5228 23.7117 83.993 23.6403L83.4417 23.569C82.9012 23.4977 82.4093 23.3947 81.966 23.26C81.5228 23.1253 81.1714 22.939 80.912 22.7013C80.6525 22.4636 80.5228 22.1585 80.5228 21.786C80.5228 21.2313 80.8039 20.8034 81.366 20.5023C81.9282 20.1932 82.6742 20.0387 83.6039 20.0387C84.5011 20.0387 85.2363 20.1893 85.8093 20.4904C86.393 20.7836 86.7714 21.1838 86.9444 21.6909L85.3876 22.0119C85.2903 21.6553 85.0849 21.4057 84.7714 21.263C84.4579 21.1124 84.0687 21.0372 83.6039 21.0372C83.1498 21.0372 82.7931 21.1005 82.5336 21.2274C82.2741 21.3462 82.1444 21.5166 82.1444 21.7385C82.1444 21.9762 82.2688 22.1506 82.5174 22.2615C82.7768 22.3724 83.1228 22.4556 83.5552 22.5111L84.1228 22.5824C84.6957 22.6538 85.2201 22.7528 85.6957 22.8796C86.1714 23.0064 86.5444 23.1887 86.8147 23.4264C87.0957 23.6641 87.2363 23.9811 87.2363 24.3773C87.2363 24.9637 86.939 25.4194 86.3444 25.7443C85.7498 26.0692 84.9498 26.2316 83.9444 26.2316ZM92.9873 26.0652C92.5008 26.0652 92.1116 25.9582 91.8197 25.7443C91.5387 25.5303 91.3981 25.245 91.3981 24.8884V21.2392H89.1927V20.2051H91.3981V18.2676H93.0684V20.2051H95.4521V21.2392H93.0684V24.6745C93.0684 24.9122 93.2198 25.0311 93.5224 25.0311H95.1927V26.0652H92.9873ZM101.767 26.2316C100.956 26.2316 100.248 26.1088 99.6428 25.8631C99.0376 25.6096 98.5615 25.2569 98.2158 24.8052C97.8805 24.3456 97.7132 23.8147 97.7132 23.2124V23.0698C97.7132 22.4596 97.8805 21.9287 98.2158 21.477C98.5512 21.0173 99.0156 20.6647 99.6104 20.4191C100.216 20.1655 100.913 20.0387 101.702 20.0387C102.47 20.0387 103.14 20.1655 103.713 20.4191C104.297 20.6647 104.751 21.0094 105.075 21.4532C105.4 21.897 105.562 22.416 105.562 23.0104V23.4739H99.4158C99.4372 23.989 99.6701 24.4011 100.113 24.7101C100.567 25.0113 101.13 25.1618 101.8 25.1618C102.427 25.1618 102.897 25.0588 103.21 24.8528C103.535 24.6468 103.783 24.409 103.956 24.1396L105.335 24.6626C105.184 24.8845 104.962 25.1182 104.67 25.3639C104.389 25.6096 104.016 25.8156 103.551 25.982C103.086 26.1484 102.492 26.2316 101.767 26.2316ZM99.432 22.5349H103.859C103.816 22.0911 103.6 21.7464 103.21 21.5007C102.821 21.2472 102.313 21.1204 101.686 21.1204C101.059 21.1204 100.546 21.2472 100.146 21.5007C99.7563 21.7464 99.5183 22.0911 99.432 22.5349ZM108.545 28.4426V20.2051H110.183V21.0491H110.443C110.648 20.7875 110.956 20.5538 111.367 20.3477C111.789 20.1417 112.389 20.0387 113.167 20.0387C113.837 20.0387 114.448 20.1576 114.999 20.3953C115.561 20.633 116.01 20.9777 116.345 21.4294C116.691 21.8732 116.864 22.4121 116.864 23.046V23.2243C116.864 23.8583 116.696 24.4011 116.362 24.8528C116.026 25.2965 115.577 25.6373 115.016 25.875C114.453 26.1128 113.837 26.2316 113.167 26.2316C112.648 26.2316 112.21 26.1841 111.854 26.089C111.497 25.9939 111.21 25.875 110.994 25.7324C110.777 25.5818 110.605 25.4273 110.475 25.2688H110.216V28.4426H108.545ZM112.681 25.1618C113.416 25.1618 114.016 24.9915 114.481 24.6507C114.945 24.3099 115.178 23.8226 115.178 23.1887V23.0817C115.178 22.4556 114.94 21.9723 114.464 21.6315C113.999 21.2907 113.404 21.1204 112.681 21.1204C111.967 21.1204 111.372 21.2907 110.897 21.6315C110.432 21.9723 110.2 22.4556 110.2 23.0817V23.1887C110.2 23.8226 110.432 24.3099 110.897 24.6507C111.372 24.9915 111.967 25.1618 112.681 25.1618Z" fill="#D9D9D9"/>
<path d="M75.6334 32.8614L60.0332 45.8405C59.295 46.4546 59.8899 47.42 61.0066 47.42H92.2069C93.3235 47.42 93.9185 46.4546 93.1802 45.8405L77.5801 32.8614C77.0636 32.4316 76.1499 32.4316 75.6334 32.8614Z" fill="#D9D9D9"/>
<defs>
<filter id="filter0_d_304_10481" x="0.571289" y="53.043" width="151.999" height="11.9897" filterUnits="userSpaceOnUse" color-interpolation-filters="sRGB">
<feFlood flood-opacity="0" result="BackgroundImageFix"/>
<feColorMatrix in="SourceAlpha" type="matrix" values="0 0 0 0 0 0 0 0 0 0 0 0 0 0 0 0 0 0 127 0" result="hardAlpha"/>
<feOffset dy="4"/>
<feGaussianBlur stdDeviation="2"/>
<feComposite in2="hardAlpha" operator="out"/>
<feColorMatrix type="matrix" values="0 0 0 0 0 0 0 0 0 0 0 0 0 0 0 0 0 0 0.25 0"/>
<feBlend mode="normal" in2="BackgroundImageFix" result="effect1_dropShadow_304_10481"/>
<feBlend mode="normal" in="SourceGraphic" in2="effect1_dropShadow_304_10481" result="shape"/>
</filter>
</defs>
</svg>
