<svg width="30" height="27" viewBox="0 0 30 27" fill="none" xmlns="http://www.w3.org/2000/svg">
<path fill-rule="evenodd" clip-rule="evenodd" d="M14.0613 3.59094C13.5789 1.49727 11.6171 -0.436536 9.32305 0.0865173C7.26359 0.55655 6.03821 2.89332 6.59166 5.29567C7.07386 7.38978 9.06198 9.31779 11.3298 8.8C13.6235 8.27627 14.5437 5.68451 14.0613 3.59094ZM15.5458 4.00203C16.0122 1.97802 17.9087 0.108543 20.1264 0.614195C22.1173 1.06859 23.302 3.32761 22.7669 5.65004C22.3008 7.67448 20.3788 9.53835 18.1864 9.03779C15.969 8.53148 15.0795 6.02594 15.5458 4.00203ZM28.2849 7.43185C26.5565 5.95911 24.0049 6.73847 22.648 8.31566C21.2911 9.89276 20.9106 12.523 22.6385 13.9962C24.3469 15.4528 26.9184 14.6901 28.2753 13.1125C29.8322 11.3027 29.8364 8.7544 28.2849 7.43185ZM22.4532 16.7955C21.9844 15.1037 20.9709 13.6117 19.5683 12.5484C18.1657 11.4851 16.4514 10.9093 14.6885 10.9093C12.9255 10.9093 11.2112 11.4851 9.80862 12.5484C8.40603 13.6117 7.39258 15.1037 6.92377 16.7955L5.80655 20.8272C5.40333 22.2823 5.71273 23.8768 6.63137 25.0777C7.55001 26.2787 9.01175 26.9996 10.5281 26.9996H18.8489C20.3652 26.9996 21.8269 26.2787 22.7456 25.0777C23.6642 23.8768 23.9736 22.2823 23.5704 20.8272L22.4532 16.7955ZM1.76019 7.10807C3.79853 5.93706 6.24455 7.21162 7.32366 9.07175C8.40271 10.9318 8.2882 13.6783 6.25034 14.8499C4.2355 16.0082 1.76605 14.7468 0.687 12.8862C-0.551128 10.7518 -0.0696029 8.15979 1.76019 7.10807Z" fill="white"/>
</svg>
