<svg width="107" height="107" viewBox="0 0 107 107" fill="none" xmlns="http://www.w3.org/2000/svg">
<g filter="url(#filter0_i_81_13182)">
<path d="M0 68.3902C0 65.7873 0 64.4859 0.300029 63.4214C1.05539 60.7416 3.14977 58.6472 5.82965 57.8918C6.89408 57.5918 8.19554 57.5918 10.7985 57.5918C13.4014 57.5918 14.7028 57.5918 15.7673 57.8918C18.4471 58.6472 20.5415 60.7416 21.2969 63.4214C21.5969 64.4859 21.5969 65.7873 21.5969 68.3903V86.3877H0V68.3902Z" fill="white"/>
<path d="M28.4688 49.193C28.4688 46.5901 28.4688 45.2886 28.7688 44.2242C29.5241 41.5443 31.6185 39.4499 34.2984 38.6946C35.3628 38.3945 36.6643 38.3945 39.2672 38.3945C41.8701 38.3945 43.1716 38.3945 44.236 38.6946C46.9159 39.4499 49.0103 41.5443 49.7656 44.2242C50.0657 45.2886 50.0657 46.5901 50.0657 49.193V86.3876H28.4688V49.193Z" fill="white"/>
<path d="M56.9355 29.9957C56.9355 27.3928 56.9355 26.0914 57.2356 25.0269C57.9909 22.347 60.0853 20.2527 62.7652 19.4973C63.8296 19.1973 65.1311 19.1973 67.734 19.1973C70.3369 19.1973 71.6384 19.1973 72.7028 19.4973C75.3827 20.2527 77.4771 22.347 78.2324 25.0269C78.5324 26.0914 78.5324 27.3928 78.5324 29.9957V86.3876H56.9355V29.9957Z" fill="white"/>
<path d="M85.4043 10.7984C85.4043 8.19554 85.4043 6.89408 85.7043 5.82965C86.4597 3.14977 88.5541 1.05539 91.2339 0.300029C92.2984 0 93.5998 0 96.2027 0C98.8057 0 100.107 0 101.172 0.300029C103.851 1.05539 105.946 3.14977 106.701 5.82965C107.001 6.89408 107.001 8.19554 107.001 10.7985V86.3876H85.4043V10.7984Z" fill="white"/>
</g>
<g filter="url(#filter1_i_81_13182)">
<path d="M3.52148 100.009C3.52148 103.761 6.94331 106.802 11.1643 106.802C14.8956 106.802 18.0023 104.426 18.6731 101.282L31.9973 101.282C32.668 104.425 35.7748 106.802 39.506 106.802C43.2372 106.802 46.3439 104.425 47.0147 101.282L60.3394 101.282C61.0102 104.425 64.1169 106.802 67.8481 106.802C71.5793 106.802 74.6861 104.425 75.3568 101.282L88.6821 101.282C89.3529 104.426 92.4596 106.802 96.1908 106.802C100.412 106.802 103.834 103.761 103.834 100.009C103.834 96.2565 100.412 93.2149 96.1908 93.2149C92.4596 93.2149 89.3529 95.5916 88.6821 98.7347L75.3569 98.7347C74.6861 95.5916 71.5794 93.2148 67.8481 93.2148C64.1169 93.2148 61.0102 95.5915 60.3394 98.7347L47.0147 98.7347C46.3439 95.5915 43.2372 93.2148 39.506 93.2148C35.7747 93.2148 32.668 95.5916 31.9972 98.7347L18.6731 98.7347C18.0023 95.5916 14.8956 93.2149 11.1643 93.2149C6.94331 93.2149 3.52148 96.2565 3.52148 100.009Z" fill="white"/>
</g>
<defs>
<filter id="filter0_i_81_13182" x="0" y="0" width="107.002" height="90.3877" filterUnits="userSpaceOnUse" color-interpolation-filters="sRGB">
<feFlood flood-opacity="0" result="BackgroundImageFix"/>
<feBlend mode="normal" in="SourceGraphic" in2="BackgroundImageFix" result="shape"/>
<feColorMatrix in="SourceAlpha" type="matrix" values="0 0 0 0 0 0 0 0 0 0 0 0 0 0 0 0 0 0 127 0" result="hardAlpha"/>
<feOffset dy="4"/>
<feGaussianBlur stdDeviation="2"/>
<feComposite in2="hardAlpha" operator="arithmetic" k2="-1" k3="1"/>
<feColorMatrix type="matrix" values="0 0 0 0 0 0 0 0 0 0 0 0 0 0 0 0 0 0 0.25 0"/>
<feBlend mode="normal" in2="shape" result="effect1_innerShadow_81_13182"/>
</filter>
<filter id="filter1_i_81_13182" x="3.52148" y="93.2148" width="100.312" height="17.5869" filterUnits="userSpaceOnUse" color-interpolation-filters="sRGB">
<feFlood flood-opacity="0" result="BackgroundImageFix"/>
<feBlend mode="normal" in="SourceGraphic" in2="BackgroundImageFix" result="shape"/>
<feColorMatrix in="SourceAlpha" type="matrix" values="0 0 0 0 0 0 0 0 0 0 0 0 0 0 0 0 0 0 127 0" result="hardAlpha"/>
<feOffset dy="4"/>
<feGaussianBlur stdDeviation="2"/>
<feComposite in2="hardAlpha" operator="arithmetic" k2="-1" k3="1"/>
<feColorMatrix type="matrix" values="0 0 0 0 0 0 0 0 0 0 0 0 0 0 0 0 0 0 0.25 0"/>
<feBlend mode="normal" in2="shape" result="effect1_innerShadow_81_13182"/>
</filter>
</defs>
</svg>
