<svg width="26" height="27" viewBox="0 0 26 27" fill="none" xmlns="http://www.w3.org/2000/svg">
<path fill-rule="evenodd" clip-rule="evenodd" d="M3.14096 0C5.34844 1.58319 7.37041 5.55484 8.10963 7.12362C9.53717 6.67476 11.0897 6.42852 12.7134 6.42852C14.1749 6.42852 15.5789 6.62805 16.8859 6.99528C17.6705 5.3481 19.6442 1.54166 21.7937 0C21.7937 0 23.9402 5.6978 23.6333 11.4439C24.7722 12.9852 25.4268 14.7878 25.4268 16.7141C25.4268 22.3947 19.7348 26.9997 12.7134 26.9997C5.69198 26.9997 0 22.3947 0 16.7141C0 15.0553 0.48535 13.4883 1.34743 12.1008C0.827816 6.14041 3.14096 0 3.14096 0Z" fill="white"/>
</svg>
