<svg width="27" height="27" viewBox="0 0 27 27" fill="none" xmlns="http://www.w3.org/2000/svg">
<path d="M13.4999 0C6.04231 0 0 6.01509 0 13.4391C0 20.8632 6.04231 26.8782 13.4999 26.8782C20.9576 26.8782 26.9999 20.8632 26.9999 13.4391C26.9999 6.01509 20.9576 0 13.4999 0ZM15.3398 8.76252L19.6947 6.1614C20.3261 5.78749 21.0011 6.57867 20.533 7.13682L18.7039 9.32068L20.533 11.5045C21.0066 12.0681 20.3207 12.8485 19.6947 12.48L15.3398 9.87884C14.9207 9.62415 14.9207 9.01722 15.3398 8.76252ZM6.4669 7.13682C5.99876 6.57867 6.67376 5.78749 7.30521 6.1614L11.66 8.76252C12.0846 9.01722 12.0846 9.62415 11.66 9.87884L7.30521 12.48C6.6792 12.8485 5.99876 12.0681 6.4669 11.5045L8.29593 9.32068L6.4669 7.13682ZM21.7142 16.1486C21.2297 19.9961 17.931 22.9766 13.9354 22.9766H13.0645C9.06891 22.9766 5.77013 19.9961 5.28566 16.1486C5.22034 15.6338 5.6286 15.1732 6.15118 15.1732H20.8487C21.3713 15.1732 21.7795 15.6284 21.7142 16.1486Z" fill="white"/>
</svg>
