<svg width="101" height="14" viewBox="0 0 101 14" fill="none" xmlns="http://www.w3.org/2000/svg">
<g filter="url(#filter0_i_0_615)">
<path d="M0 6.84027C3.71544e-07 10.618 3.44528 13.6805 7.69524 13.6805C11.452 13.6805 14.5801 11.2875 15.2554 8.12281L28.6709 8.12281C29.3463 11.2875 32.4743 13.6804 36.2311 13.6804C39.9879 13.6804 43.1159 11.2875 43.7913 8.12275L57.2073 8.12275C57.8827 11.2875 61.0107 13.6804 64.7675 13.6804C68.5243 13.6804 71.6523 11.2875 72.3277 8.12281L85.7443 8.12281C86.4197 11.2875 89.5477 13.6805 93.3045 13.6805C97.5544 13.6805 101 10.618 101 6.84027C101 3.06252 97.5544 5.4537e-05 93.3045 5.48673e-05C89.5477 5.51592e-05 86.4197 2.39303 85.7443 5.55773L72.3277 5.55773C71.6524 2.393 68.5243 0 64.7675 0C61.0107 4.37907e-07 57.8827 2.39297 57.2073 5.55767L43.7913 5.55767C43.1159 2.39297 39.9879 2.8884e-06 36.2311 3.32631e-06C32.4743 3.76422e-06 29.3462 2.393 28.6709 5.55773L15.2554 5.55773C14.5801 2.39303 11.452 6.1228e-05 7.69524 6.15199e-05C3.44527 6.18502e-05 -3.71544e-07 3.06253 0 6.84027Z" fill="#BA1DF1"/>
</g>
<defs>
<filter id="filter0_i_0_615" x="0" y="0" width="101" height="17.7084" filterUnits="userSpaceOnUse" color-interpolation-filters="sRGB">
<feFlood flood-opacity="0" result="BackgroundImageFix"/>
<feBlend mode="normal" in="SourceGraphic" in2="BackgroundImageFix" result="shape"/>
<feColorMatrix in="SourceAlpha" type="matrix" values="0 0 0 0 0 0 0 0 0 0 0 0 0 0 0 0 0 0 127 0" result="hardAlpha"/>
<feOffset dy="4"/>
<feGaussianBlur stdDeviation="2"/>
<feComposite in2="hardAlpha" operator="arithmetic" k2="-1" k3="1"/>
<feColorMatrix type="matrix" values="0 0 0 0 0 0 0 0 0 0 0 0 0 0 0 0 0 0 0.25 0"/>
<feBlend mode="normal" in2="shape" result="effect1_innerShadow_0_615"/>
</filter>
</defs>
</svg>
